{"glyphs":{"0":{"ha":847,"x_min":76,"x_max":771,"o":"m 194 928 q 425 1001 281 1001 q 663 928 569 1001 q 771 507 771 765 q 674 93 771 250 q 442 -3 614 -3 q 300 18 371 -3 q 181 90 217 44 q 101 301 131 154 q 76 529 76 424 q 194 928 76 783 m 338 524 q 357 439 338 478 q 424 390 382 390 q 490 439 465 390 q 510 524 510 478 q 490 610 510 571 q 424 658 465 658 q 357 610 382 658 q 338 524 338 571 z "},"1":{"ha":847,"x_min":175,"x_max":671,"o":"m 181 836 q 175 856 175 844 q 222 935 175 893 q 303 985 260 968 q 460 1006 376 1006 q 621 951 579 1006 q 671 596 671 886 q 638 72 671 256 q 469 -6 624 -6 q 311 51 329 -6 q 304 149 304 88 q 319 406 304 235 q 333 664 333 578 q 317 779 333 754 q 281 815 306 815 q 251 810 271 815 q 222 804 232 804 q 181 836 196 804 z "},"2":{"ha":847,"x_min":78,"x_max":768,"o":"m 111 814 q 241 956 156 906 q 429 1006 326 1006 q 626 951 539 1006 q 744 790 722 892 q 760 654 760 719 q 574 344 760 449 q 504 299 506 307 q 629 315 572 315 q 710 300 681 315 q 768 175 768 281 q 721 43 768 67 q 565 11 713 22 q 392 4 472 4 q 104 47 143 4 q 78 167 78 110 q 181 379 78 278 q 369 525 225 424 q 472 640 472 597 q 468 661 472 651 q 433 728 443 719 q 353 744 415 744 q 271 681 304 744 q 192 615 238 618 q 113 637 144 613 q 81 707 81 661 q 111 814 81 751 z "},"3":{"ha":847,"x_min":88,"x_max":760,"o":"m 667 79 q 381 -1 597 -1 q 132 54 203 -1 q 93 149 93 85 q 126 263 93 217 q 188 290 147 290 q 282 272 218 290 q 376 254 346 254 q 447 346 447 254 q 386 415 447 415 q 320 407 365 415 q 253 399 275 399 q 151 508 163 399 q 278 624 163 624 q 313 624 313 624 q 346 622 357 622 q 428 707 433 622 q 346 786 407 786 q 249 760 315 786 q 151 735 182 735 q 126 739 138 735 q 88 831 88 779 q 201 975 88 932 q 400 1006 281 1006 q 663 919 601 1006 q 728 724 728 828 q 639 540 728 599 q 760 321 760 464 q 667 79 760 186 z "},"4":{"ha":847,"x_min":61,"x_max":786,"o":"m 556 997 q 524 999 540 999 q 193 768 340 999 q 61 367 61 561 q 65 313 61 336 q 225 219 138 219 q 299 235 251 219 q 367 250 347 250 q 390 224 390 250 q 380 164 390 204 q 369 103 369 124 q 381 39 369 69 q 443 6 389 18 q 518 -4 483 -4 q 622 29 594 -4 q 633 110 633 61 q 626 194 633 146 l 621 235 q 676 254 643 254 q 699 253 683 254 q 721 251 714 251 q 753 263 740 251 q 786 371 786 293 q 750 494 786 465 q 706 513 732 513 q 675 508 694 513 q 646 504 656 504 q 628 519 631 504 q 639 743 639 650 q 556 997 639 1000 m 343 540 q 363 589 346 560 q 397 624 382 624 q 410 603 408 624 q 408 561 408 625 q 386 521 408 521 q 357 519 347 521 q 343 540 340 521 z "},"5":{"ha":847,"x_min":92,"x_max":756,"o":"m 143 921 q 397 1010 163 1010 q 718 844 718 1010 q 700 771 718 806 q 586 728 668 731 q 443 739 571 728 q 346 728 364 746 q 306 657 306 728 q 333 594 306 610 q 404 589 351 585 q 518 592 481 594 q 656 556 593 586 q 756 318 756 489 q 728 161 756 235 q 637 37 694 74 q 413 0 579 0 q 149 44 196 0 q 113 153 113 78 q 140 278 113 224 q 197 300 158 300 q 299 281 232 300 q 399 261 365 261 q 454 315 451 261 q 338 388 449 388 q 294 388 294 388 q 269 386 285 388 q 251 386 256 386 q 143 424 164 386 q 92 661 92 517 q 143 921 92 806 z "},"6":{"ha":847,"x_min":79,"x_max":768,"o":"m 138 868 q 269 982 171 944 q 446 1014 349 1014 q 718 835 718 1014 q 678 710 718 760 q 642 707 658 707 q 540 750 607 707 q 476 760 511 760 q 344 719 397 760 q 301 607 301 650 q 317 553 301 578 q 331 550 322 550 q 406 572 343 550 q 510 593 469 593 q 675 554 586 593 q 768 315 768 474 q 747 176 768 246 q 675 58 721 90 q 433 -3 586 -3 q 136 132 207 -3 q 79 528 79 285 q 138 868 79 764 m 413 324 q 482 263 413 256 q 521 281 511 265 q 528 324 528 292 q 519 367 528 361 q 471 371 510 374 q 410 328 410 365 q 411 321 410 324 q 413 324 413 319 z "},"7":{"ha":847,"x_min":76,"x_max":771,"o":"m 121 938 q 399 1006 186 1006 q 571 992 483 1006 q 722 929 696 971 q 771 792 771 901 q 696 406 771 650 q 558 43 631 193 q 442 -4 536 -4 q 353 7 404 -4 q 278 43 289 21 q 272 92 272 67 q 332 311 272 181 q 440 521 357 367 q 500 668 500 632 q 486 699 500 688 q 379 732 443 732 q 271 694 313 732 q 254 647 256 683 q 239 597 253 610 q 165 565 203 565 q 125 576 146 565 q 76 769 76 603 q 121 938 76 915 z "},"8":{"ha":847,"x_min":72,"x_max":774,"o":"m 164 931 q 283 990 192 971 q 421 1006 349 1006 q 671 925 619 1006 q 718 825 700 894 q 733 715 733 767 q 658 533 733 596 q 744 426 713 500 q 774 290 774 361 q 710 94 774 178 q 446 4 642 4 q 283 24 367 4 q 136 88 181 46 q 72 290 72 179 q 99 426 72 358 q 176 539 128 503 q 103 721 103 604 q 164 931 103 844 m 358 308 q 421 256 358 256 q 469 265 456 256 q 483 306 483 274 q 479 322 483 311 q 424 357 465 357 q 358 308 358 357 m 358 725 q 421 672 358 672 q 483 722 483 672 q 470 763 483 753 q 424 774 457 774 q 358 725 358 774 z "},"9":{"ha":847,"x_min":96,"x_max":751,"o":"m 242 31 q 397 3 325 3 q 682 190 592 3 q 751 549 751 332 q 736 736 751 640 q 681 911 717 861 q 563 988 644 961 q 419 1011 492 1011 q 186 919 253 1011 q 110 683 110 814 q 190 468 110 550 q 344 417 271 417 q 422 432 374 417 q 482 447 469 447 q 503 439 494 447 q 515 399 515 421 q 463 303 515 343 q 354 264 411 264 q 232 314 289 264 q 190 322 210 322 q 128 295 154 322 q 96 232 101 268 q 119 149 113 160 q 242 31 146 104 m 503 725 q 457 649 503 656 q 413 643 424 643 q 351 696 363 643 q 349 722 349 710 q 426 788 349 771 q 478 773 454 793 q 503 725 503 753 z "}," ":{"ha":418,"x_min":0,"x_max":0,"o":""},"!":{"ha":397,"x_min":25,"x_max":310,"o":"m 38 946 q 171 1013 68 1013 q 251 996 215 1013 q 301 935 297 974 q 310 871 310 919 q 286 621 310 786 q 233 383 260 438 q 164 328 206 328 q 97 389 124 328 q 46 621 69 450 q 25 863 25 772 q 38 946 25 929 m 31 139 q 175 260 39 261 q 251 236 226 258 q 289 164 276 214 q 293 129 293 146 q 253 36 293 69 q 153 3 214 3 q 63 44 99 3 q 31 139 26 85 z "},"\"":{"ha":799,"x_min":36,"x_max":711,"o":"m 125 1039 q 196 1051 158 1051 q 310 1006 264 1051 q 357 894 357 961 q 264 675 358 790 q 135 574 181 574 q 113 588 122 574 q 104 617 104 603 q 121 674 104 636 q 138 724 138 713 q 136 732 138 728 q 36 886 36 776 q 60 978 36 933 q 125 1039 83 1024 m 547 1051 q 661 1006 614 1051 q 710 894 708 961 q 617 675 711 790 q 486 574 533 574 q 478 576 481 574 q 457 617 457 592 q 474 674 457 636 q 490 724 490 713 q 488 732 490 728 q 388 886 388 776 q 413 979 388 936 q 547 1051 454 1051 z "},"#":{"ha":835,"x_min":4,"x_max":743,"o":"m 6 668 q 119 750 8 750 q 179 747 144 750 q 171 826 171 804 q 257 924 171 915 q 346 822 346 933 q 343 788 346 807 q 378 749 338 749 q 415 782 411 749 q 411 839 411 815 q 486 925 411 928 q 574 831 574 922 q 568 747 574 822 q 614 749 594 749 q 732 668 732 749 q 646 590 732 590 q 588 599 619 590 q 550 561 550 599 q 583 521 550 526 q 643 525 619 525 q 743 453 743 525 q 642 368 743 368 q 572 376 611 368 q 579 300 579 329 q 488 201 579 199 q 410 303 410 204 q 414 343 410 322 q 372 376 408 376 q 335 338 342 376 q 338 303 338 319 q 267 206 338 206 q 169 340 169 204 q 171 376 169 357 q 114 371 139 371 q 10 446 17 371 q 114 535 15 535 q 172 531 138 535 q 199 568 199 533 q 172 604 199 601 q 103 592 136 592 q 6 668 4 592 m 331 558 q 363 528 333 529 q 393 558 393 525 q 363 590 393 590 q 331 558 328 590 z "},"$":{"ha":822,"x_min":7,"x_max":753,"o":"m 703 797 q 606 883 650 857 q 464 919 546 918 q 467 946 467 925 q 386 1028 467 1028 q 293 976 306 1028 l 285 904 q 104 810 179 879 q 19 631 19 731 q 88 488 19 547 q 236 419 149 433 q 282 403 276 419 q 281 346 281 394 q 263 319 285 319 q 176 350 244 319 q 79 386 104 382 q 15 318 31 369 q 7 219 7 290 q 131 129 57 154 q 286 108 188 110 q 294 39 288 53 q 389 1 313 1 q 481 43 464 1 q 488 119 483 50 q 665 179 597 133 q 749 335 753 236 q 689 481 744 431 q 542 546 643 522 q 500 558 507 554 q 483 594 483 568 q 486 643 483 621 l 486 683 q 499 697 489 697 q 567 668 514 697 q 594 661 579 661 q 674 694 633 661 q 714 767 714 728 q 703 797 714 785 m 249 638 q 257 665 249 649 q 276 682 265 682 q 281 681 281 682 q 276 586 281 649 q 249 638 249 589 m 507 335 q 507 364 506 363 q 524 375 508 375 q 546 340 546 372 q 524 314 546 314 q 508 315 510 314 q 507 335 507 317 z "},"%":{"ha":821,"x_min":10,"x_max":742,"o":"m 256 36 q 194 10 231 10 q 108 45 150 10 q 65 124 65 81 q 71 150 65 138 q 283 564 131 283 q 492 979 428 832 q 549 1010 504 1010 q 640 976 599 1010 q 682 893 682 942 q 679 869 682 882 q 256 36 528 581 m 457 422 q 571 456 499 456 q 688 422 642 456 q 742 233 742 349 q 694 47 742 117 q 579 4 665 4 q 450 46 488 4 q 399 243 399 103 q 457 422 399 357 m 528 240 q 539 200 528 219 q 569 181 550 181 q 613 240 613 181 q 601 282 613 263 q 569 301 590 301 q 539 281 550 301 q 528 240 528 261 m 68 974 q 182 1007 110 1007 q 299 974 253 1007 q 353 785 353 900 q 306 599 353 668 q 190 556 276 556 q 61 597 99 556 q 10 794 10 654 q 68 974 10 908 m 139 792 q 150 751 139 771 q 181 732 161 732 q 224 792 224 732 q 213 833 224 814 q 181 853 201 853 q 150 833 161 853 q 139 792 139 813 z "},"&":{"ha":824,"x_min":-4,"x_max":754,"o":"m 286 693 q 315 721 297 699 q 329 790 329 751 q 299 800 317 800 q 285 799 292 800 q 267 764 267 782 q 286 693 267 735 m 354 250 l 301 297 q 251 358 282 315 q 224 315 225 332 q 242 263 221 283 q 300 232 272 232 q 354 250 318 232 m 616 28 q 610 35 616 28 q 544 93 604 42 q 297 1 439 1 q 90 90 185 1 q -4 292 -4 179 q 119 539 -4 419 q 57 771 57 654 q 128 939 57 865 q 293 1013 200 1013 q 474 960 404 1013 q 551 794 551 901 q 521 629 551 694 q 414 501 490 564 q 501 407 447 444 q 518 496 518 464 q 547 571 518 542 q 622 600 576 600 q 697 571 668 600 q 726 496 726 542 q 664 257 726 388 q 726 197 682 239 q 754 138 754 172 q 720 56 754 97 q 647 14 686 14 q 616 28 628 14 z "},"'":{"ha":532,"x_min":121,"x_max":444,"o":"m 281 1051 q 394 1006 347 1051 q 443 894 442 961 q 350 675 444 790 q 219 574 267 574 q 211 576 214 574 q 189 617 189 592 q 206 674 189 636 q 222 724 222 713 q 221 732 222 728 q 121 886 121 776 q 146 979 121 936 q 281 1051 186 1051 z "},"(":{"ha":739,"x_min":65,"x_max":676,"o":"m 214 893 q 69 508 72 760 q 196 107 65 231 q 406 7 260 46 q 481 -3 442 -3 q 607 25 550 -3 q 676 124 676 61 q 661 179 676 151 q 551 261 635 226 q 426 331 458 300 q 361 514 363 393 q 428 714 360 642 q 554 789 467 754 q 642 847 629 818 q 661 910 661 881 q 603 994 661 964 q 497 1018 557 1018 q 429 1010 458 1018 q 214 893 296 971 z "},")":{"ha":751,"x_min":51,"x_max":663,"o":"m 514 893 q 658 508 656 760 q 532 107 663 231 q 322 7 468 46 q 247 -3 286 -3 q 121 25 178 -3 q 51 124 51 61 q 67 179 51 151 q 176 261 93 226 q 301 331 269 300 q 367 514 365 393 q 300 714 368 642 q 174 789 261 754 q 86 847 99 818 q 67 910 67 881 q 125 994 67 964 q 231 1018 171 1018 q 299 1010 269 1018 q 514 893 432 971 z "},"*":{"ha":817,"x_min":36,"x_max":733,"o":"m 194 1013 q 240 1026 221 1026 q 331 963 288 1026 q 382 865 356 914 q 426 961 422 954 q 513 1024 465 1024 q 556 1013 535 1024 q 603 932 603 988 q 536 788 603 854 q 621 807 568 807 q 732 728 729 807 q 689 651 733 679 q 599 628 650 628 q 539 640 564 628 q 615 510 615 583 q 576 444 615 465 q 531 435 553 435 q 442 486 482 435 q 388 579 422 511 q 256 428 342 428 q 218 438 239 428 q 176 513 176 457 q 222 625 176 586 q 160 614 194 614 q 72 640 108 614 q 36 715 36 665 q 143 800 36 800 q 228 788 189 800 q 174 851 196 804 q 151 938 151 899 q 194 1013 151 990 z "},"+":{"ha":792,"x_min":33,"x_max":718,"o":"m 668 450 q 574 450 656 449 q 485 439 511 451 q 482 417 482 431 q 487 361 482 399 q 492 304 492 324 q 465 214 492 242 q 375 186 439 186 q 288 238 299 186 q 274 313 274 268 q 276 359 274 328 q 278 406 278 390 q 275 442 278 426 q 254 447 268 447 q 203 442 238 447 q 151 438 168 438 q 75 453 108 438 q 33 550 33 485 q 146 646 33 646 q 196 643 163 646 q 246 640 229 640 q 268 643 260 640 q 264 700 271 657 q 261 851 249 794 q 372 904 272 904 q 488 850 472 904 q 497 794 497 828 q 490 724 497 765 q 481 658 481 664 q 482 639 479 646 q 510 632 492 632 q 565 639 528 632 q 619 646 601 646 q 718 535 718 646 q 668 450 718 456 z "},",":{"ha":525,"x_min":121,"x_max":443,"o":"m 210 303 q 281 315 243 315 q 395 270 349 315 q 442 158 442 225 q 349 -61 443 54 q 219 -162 265 -162 q 198 -148 207 -162 q 189 -119 189 -133 q 206 -62 189 -100 q 222 -12 222 -24 q 221 -4 222 -8 q 121 150 121 40 q 144 242 121 197 q 210 303 168 288 z "},"-":{"ha":808,"x_min":40,"x_max":707,"o":"m 88 594 q 343 610 171 610 q 651 594 549 610 q 707 504 707 586 q 664 403 707 439 q 313 389 529 389 q 79 399 161 389 q 40 490 40 418 q 88 594 40 572 z "},"‐":{"ha":808,"x_min":40,"x_max":707,"o":"m 88 594 q 343 610 171 610 q 651 594 549 610 q 707 504 707 586 q 664 403 707 439 q 313 389 529 389 q 79 399 161 389 q 40 490 40 418 q 88 594 40 572 z "},".":{"ha":547,"x_min":132,"x_max":458,"o":"m 224 307 q 292 319 256 319 q 443 218 388 319 q 458 151 458 190 q 379 19 458 69 q 299 -4 342 -4 q 180 44 228 -4 q 132 164 132 93 q 224 307 132 271 z "},"/":{"ha":765,"x_min":35,"x_max":714,"o":"m 482 986 q 560 1014 507 1014 q 663 982 618 1014 q 710 890 714 946 q 511 446 674 751 q 265 32 361 161 q 168 3 221 3 q 76 33 114 3 q 35 118 35 65 q 42 161 35 138 q 260 622 81 299 q 482 986 429 928 z "},":":{"ha":525,"x_min":118,"x_max":444,"o":"m 210 876 q 283 890 244 890 q 429 788 382 890 q 444 721 444 754 q 365 589 444 639 q 285 565 328 565 q 166 614 214 565 q 118 733 118 663 q 210 876 118 840 m 210 307 q 283 321 244 321 q 429 218 382 321 q 444 151 444 185 q 365 19 444 69 q 285 -4 328 -4 q 166 44 214 -4 q 118 164 118 93 q 210 307 118 271 z "},";":{"ha":525,"x_min":118,"x_max":444,"o":"m 281 315 q 395 270 349 315 q 442 158 442 225 q 350 -61 443 51 q 219 -162 267 -162 q 211 -160 214 -162 q 189 -119 189 -144 q 206 -62 189 -100 q 222 -12 222 -24 q 221 -4 222 -8 q 121 150 121 40 q 146 243 121 200 q 281 315 186 315 m 210 876 q 283 890 244 890 q 429 788 382 890 q 444 721 444 754 q 365 589 444 639 q 285 565 328 565 q 166 614 214 565 q 118 733 118 663 q 210 876 118 840 z "},"<":{"ha":756,"x_min":68,"x_max":696,"o":"m 424 994 q 211 781 321 914 q 69 508 68 607 q 246 206 71 389 q 539 0 415 29 q 649 41 601 0 q 696 143 696 82 q 668 221 696 182 q 500 375 631 274 q 397 508 397 456 q 533 688 397 554 q 690 865 679 831 q 646 978 690 938 q 528 1019 601 1019 q 424 994 474 1019 z "},"=":{"ha":803,"x_min":40,"x_max":707,"o":"m 88 747 q 343 763 171 763 q 651 747 549 763 q 707 657 707 739 q 664 556 707 592 q 313 542 529 542 q 79 551 161 542 q 40 643 40 571 q 88 747 40 725 m 88 456 q 343 471 171 471 q 651 456 549 471 q 707 365 707 447 q 664 264 707 300 q 313 250 529 250 q 79 260 161 250 q 40 351 40 279 q 88 456 40 433 z "},">":{"ha":761,"x_min":54,"x_max":682,"o":"m 326 994 q 539 781 429 914 q 681 508 682 607 q 504 206 679 389 q 211 0 335 29 q 101 41 149 0 q 54 143 54 82 q 82 221 54 182 q 250 375 119 274 q 353 508 353 456 q 217 688 353 554 q 60 865 71 831 q 104 978 60 938 q 222 1019 149 1019 q 326 994 276 1019 z "},"?":{"ha":781,"x_min":53,"x_max":708,"o":"m 58 811 q 183 965 93 913 q 379 1014 267 1014 q 569 972 481 1014 q 693 833 678 922 q 708 736 708 789 q 671 581 708 650 q 557 469 631 504 q 511 436 532 457 l 450 374 q 379 322 426 322 q 299 376 322 322 q 290 394 294 388 q 279 461 279 429 q 317 543 279 510 q 397 596 328 554 q 475 692 475 643 q 453 754 475 719 q 347 814 415 814 q 165 714 246 814 q 53 783 53 714 q 58 811 53 794 m 240 140 q 383 260 247 261 q 497 164 476 258 q 501 129 501 144 q 462 36 501 69 q 361 3 422 3 q 267 50 301 3 q 240 140 238 90 z "},"@":{"ha":836,"x_min":0,"x_max":740,"o":"m 538 413 q 575 549 575 415 q 567 660 575 600 q 536 757 554 736 q 393 792 513 783 q 257 774 303 797 q 190 660 201 743 q 182 490 189 651 q 226 271 175 333 q 497 197 294 189 q 583 210 525 199 q 671 222 642 222 q 722 181 704 222 q 735 111 735 150 q 707 31 735 39 q 497 -6 594 -1 q 69 139 176 -17 q 6 490 0 240 q 72 861 11 753 q 393 1008 160 1017 q 672 894 597 1001 q 736 588 733 806 q 643 251 740 286 q 506 235 603 238 q 276 272 329 231 q 213 488 217 318 q 233 693 208 644 q 367 751 263 750 q 524 697 496 753 q 539 513 539 668 q 538 413 539 421 m 356 493 q 354 446 356 431 q 378 413 357 414 q 394 410 383 411 q 400 493 403 410 q 399 565 400 517 q 378 582 399 582 q 356 565 356 582 q 356 493 356 565 z "},"A":{"ha":822,"x_min":11,"x_max":744,"o":"m 154 931 q 369 1013 193 1013 q 493 994 436 1013 q 592 926 569 972 q 693 528 640 831 q 744 110 744 242 q 732 42 744 50 q 675 11 722 24 q 608 1 636 1 q 496 42 542 1 q 443 178 453 111 q 425 322 438 226 q 379 363 415 363 q 346 352 364 363 q 329 326 328 342 q 314 153 325 268 q 274 42 306 68 q 158 3 228 3 q 25 57 67 3 q 11 151 11 69 q 50 539 11 310 q 154 931 96 807 m 279 647 q 304 592 279 614 q 363 571 329 571 q 422 592 396 571 q 447 647 447 614 q 422 702 447 681 q 363 724 396 724 q 304 702 329 724 q 279 647 279 681 z "},"B":{"ha":804,"x_min":18,"x_max":722,"o":"m 46 892 q 18 567 18 822 q 82 88 18 193 q 214 11 117 31 q 399 0 271 0 q 526 25 440 0 q 643 74 619 50 q 722 261 722 149 q 651 443 722 360 q 494 547 574 515 q 611 635 565 579 q 664 768 663 697 q 640 882 665 814 q 551 992 606 976 q 346 1019 453 1019 q 172 996 251 1019 q 46 892 58 963 m 272 758 q 294 808 272 788 q 346 828 317 828 q 398 808 375 828 q 421 758 421 788 q 399 708 421 728 q 346 688 376 688 q 294 708 315 688 q 272 758 272 728 m 286 294 q 306 356 286 326 q 356 386 325 386 q 421 356 386 386 q 456 294 456 325 q 428 249 456 265 q 371 233 401 233 q 315 247 339 233 q 286 294 286 265 z "},"C":{"ha":793,"x_min":6,"x_max":740,"o":"m 519 1013 q 394 1001 415 1006 q 235 929 314 986 q 22 668 101 835 q 6 535 6 619 q 25 342 6 442 q 94 165 50 219 q 186 81 144 104 q 318 28 196 75 q 454 6 407 6 q 579 32 517 6 q 701 111 671 71 q 738 236 731 151 q 716 309 740 278 q 650 340 692 340 q 600 328 625 340 q 467 282 528 282 q 351 321 411 282 q 299 500 299 394 q 342 676 299 613 q 476 749 371 719 q 585 785 563 772 q 636 876 636 815 q 604 966 636 929 q 519 1013 572 1003 z "},"D":{"ha":826,"x_min":42,"x_max":739,"o":"m 56 922 q 49 900 56 922 q 42 640 42 878 q 92 65 42 136 q 315 0 156 0 q 489 24 404 0 q 638 110 596 54 q 739 447 739 244 q 686 747 739 599 q 589 917 639 881 q 289 1004 467 1004 q 158 988 222 1004 q 56 922 71 965 m 311 500 q 308 550 311 517 q 306 600 306 583 q 344 643 306 643 q 476 504 476 643 q 456 421 476 454 q 383 382 431 382 q 319 418 333 382 q 311 500 311 439 z "},"E":{"ha":785,"x_min":26,"x_max":732,"o":"m 99 931 q 358 1004 153 1004 q 629 954 510 1004 q 674 846 674 897 q 642 779 674 804 q 614 772 632 772 q 544 781 593 772 q 469 790 494 790 q 378 767 417 790 q 333 689 333 739 q 364 628 333 644 q 490 601 392 607 q 621 588 599 594 q 656 508 656 565 q 625 447 656 465 q 567 443 603 443 q 531 443 531 443 q 493 444 481 444 q 360 399 389 444 q 679 242 367 235 q 732 147 732 226 q 664 38 732 69 q 421 3 589 3 q 79 125 147 3 q 26 510 26 219 q 99 931 26 832 z "},"F":{"ha":783,"x_min":19,"x_max":731,"o":"m 78 890 q 397 1007 150 1007 q 685 954 558 1007 q 731 828 731 897 q 697 751 731 776 q 669 744 688 744 q 593 753 644 744 q 515 763 542 763 q 422 740 460 763 q 375 661 375 713 q 406 600 375 617 q 532 574 433 579 q 663 560 642 567 q 688 494 688 544 q 647 411 688 435 q 590 407 626 407 q 553 407 553 407 q 515 408 503 408 q 382 363 413 408 q 381 332 381 347 q 400 222 381 294 q 419 111 419 149 q 414 69 419 90 q 276 7 397 7 q 115 92 161 7 q 60 283 96 126 q 19 613 19 461 q 78 890 19 796 z "},"G":{"ha":815,"x_min":25,"x_max":738,"o":"m 444 1013 q 42 667 144 1013 q 25 453 25 547 q 74 197 25 292 q 211 68 153 106 q 464 0 315 0 q 663 121 588 25 q 738 344 738 217 q 721 453 738 400 q 663 543 692 499 q 572 589 629 582 q 501 588 506 589 q 457 540 482 582 q 521 422 453 481 q 529 386 529 406 q 507 326 529 353 q 453 300 485 300 q 347 390 394 300 q 332 486 332 419 q 340 607 332 533 q 397 726 358 688 q 517 775 436 765 q 636 881 636 789 q 444 1013 636 1013 z "},"H":{"ha":828,"x_min":35,"x_max":728,"o":"m 65 954 q 192 999 103 999 q 311 894 293 999 q 314 678 324 821 q 379 632 324 632 q 457 682 439 632 q 460 818 460 810 q 479 951 464 897 q 586 1000 493 1000 q 692 960 665 1000 q 728 454 728 824 q 718 74 728 261 q 665 25 707 43 q 592 11 631 11 q 483 69 503 11 q 461 317 468 154 q 399 369 458 369 q 333 314 333 369 q 328 115 335 147 q 194 8 303 8 q 115 22 154 8 q 61 74 65 40 q 35 536 35 256 q 65 954 35 842 z "},"I":{"ha":419,"x_min":11,"x_max":318,"o":"m 39 951 q 161 997 64 997 q 296 946 267 997 q 318 478 318 906 q 300 42 318 100 q 165 -4 281 -4 q 42 38 60 -4 q 11 532 11 107 q 39 951 11 914 z "},"J":{"ha":821,"x_min":33,"x_max":724,"o":"m 365 874 q 356 911 356 893 q 413 983 356 957 q 510 1003 457 1003 q 669 906 647 1003 q 724 510 724 778 q 671 133 724 233 q 392 3 568 3 q 203 46 290 3 q 67 181 103 96 q 33 306 33 258 q 58 388 33 349 q 156 440 83 440 q 275 328 261 440 q 338 293 294 293 q 433 346 392 293 q 469 496 469 392 q 365 874 469 672 z "},"K":{"ha":815,"x_min":17,"x_max":746,"o":"m 38 967 q 151 1014 44 1014 q 292 942 286 1014 q 296 883 296 918 q 296 847 296 847 q 294 811 294 799 q 331 714 294 733 q 413 774 379 704 q 472 907 428 807 q 571 982 514 982 q 681 940 628 982 q 733 842 733 897 q 728 808 733 826 q 626 643 704 729 q 478 518 556 564 q 633 382 556 481 q 740 143 726 263 q 693 51 746 88 q 589 21 647 21 q 500 47 535 21 q 449 149 476 78 q 401 256 415 235 q 331 304 371 304 q 307 301 319 304 q 275 228 275 282 q 307 76 275 176 q 183 4 290 4 q 82 32 124 4 q 33 121 36 64 q 17 608 17 504 q 38 967 17 832 z "},"L":{"ha":776,"x_min":4,"x_max":742,"o":"m 31 929 q 174 999 54 999 q 318 938 290 999 q 329 838 329 897 q 306 636 329 769 q 282 436 282 503 q 289 389 282 406 q 454 293 311 293 q 567 303 490 293 q 669 314 632 311 q 742 196 742 319 q 729 111 742 156 q 686 44 714 54 q 432 8 575 8 q 65 106 179 8 q 4 468 4 174 q 31 929 4 661 z "},"M":{"ha":839,"x_min":7,"x_max":744,"o":"m 46 61 q 7 532 7 157 q 38 922 7 821 q 83 989 40 965 q 165 1007 118 1007 q 253 985 215 1007 q 299 913 297 960 q 325 850 324 851 q 378 814 344 817 q 435 854 415 817 q 460 919 447 886 q 506 979 461 957 q 583 997 542 997 q 710 914 692 997 q 744 465 744 754 q 710 74 744 201 q 661 22 701 42 q 590 7 628 7 q 478 65 511 7 q 471 126 471 86 q 480 257 471 169 q 489 388 489 344 q 465 458 489 456 q 447 429 457 458 q 426 378 436 393 q 374 350 408 350 q 317 404 336 350 q 289 458 299 458 q 257 374 257 450 q 271 235 257 328 q 285 97 285 143 q 281 65 285 75 q 158 8 249 8 q 46 61 67 8 z "},"N":{"ha":842,"x_min":7,"x_max":739,"o":"m 24 940 q 7 647 7 825 q 35 78 7 433 q 93 24 42 42 q 176 8 132 8 q 310 74 286 8 q 321 110 321 85 q 294 230 321 149 q 268 349 268 311 q 289 382 268 379 q 378 282 329 379 q 465 101 407 222 q 525 36 476 60 q 615 15 567 15 q 715 68 704 15 q 739 543 739 178 q 715 944 739 863 q 583 989 690 989 q 475 951 490 989 q 464 907 464 939 q 490 756 464 856 q 517 604 517 656 q 492 556 517 560 q 415 642 449 549 q 365 829 406 667 q 311 964 338 938 q 165 1008 265 1008 q 24 940 33 1008 z "},"O":{"ha":815,"x_min":25,"x_max":729,"o":"m 260 1008 q 106 821 165 967 q 33 565 75 746 q 25 424 25 486 q 56 223 25 307 q 164 53 88 139 q 354 6 250 6 q 581 49 451 6 q 704 228 675 129 q 726 510 729 314 q 601 871 693 756 q 260 1008 489 1008 m 279 478 q 301 576 281 515 q 351 654 326 651 q 450 626 404 658 q 496 543 496 594 q 476 432 496 468 q 383 383 451 383 q 279 478 274 383 z "},"P":{"ha":803,"x_min":24,"x_max":740,"o":"m 333 1011 q 604 949 488 1011 q 736 674 740 903 q 488 403 732 403 q 324 428 415 403 q 311 403 311 422 q 349 272 311 374 q 388 119 388 169 q 347 42 388 63 q 231 10 297 10 q 76 65 122 10 q 36 294 51 107 q 24 538 24 438 q 63 869 24 783 q 333 1011 125 1011 m 319 700 q 346 651 319 671 q 399 629 368 633 q 499 713 483 618 q 382 767 499 767 q 319 700 319 767 z "},"Q":{"ha":824,"x_min":6,"x_max":746,"o":"m 238 990 q 344 1010 292 1010 q 579 894 460 1010 q 704 508 704 774 q 678 294 704 388 q 746 149 707 261 q 649 19 746 47 q 553 82 579 22 q 324 -4 501 -4 q 70 99 135 -4 q 6 358 6 203 q 14 503 6 431 q 238 990 63 928 m 282 621 q 285 547 282 554 q 344 528 293 525 q 435 517 375 529 q 443 532 442 517 q 447 596 444 553 q 418 679 451 660 q 353 690 399 690 q 299 683 307 690 q 282 621 282 671 m 301 267 q 299 253 301 263 q 297 240 297 244 q 336 228 297 228 q 375 229 371 228 q 388 258 388 233 l 388 288 q 344 299 382 299 q 301 292 307 299 l 301 267 z "},"R":{"ha":814,"x_min":-1,"x_max":724,"o":"m 32 865 q 133 972 47 932 q 315 1008 210 1008 q 583 936 469 1008 q 717 715 710 856 q 722 643 718 692 q 714 592 724 628 l 708 569 q 650 483 694 514 q 592 458 635 474 q 565 428 565 449 q 567 411 565 421 q 622 329 578 383 q 686 242 672 269 q 721 94 719 178 q 674 22 722 47 q 585 3 636 3 q 494 24 529 3 q 451 117 467 44 q 419 229 433 204 q 328 282 390 283 q 290 247 290 285 q 305 169 290 221 q 319 90 319 117 q 307 49 319 64 q 178 -6 264 -6 q 100 7 139 -6 q 36 49 50 22 q -1 464 -1 175 q 32 865 -1 721 m 265 681 q 285 619 265 644 q 340 593 304 593 q 440 681 446 593 q 343 747 436 747 q 265 681 265 747 z "},"S":{"ha":814,"x_min":0,"x_max":733,"o":"m 706 853 q 600 968 642 940 q 417 1013 533 1013 q 147 906 263 1013 q 29 642 29 794 q 84 476 29 546 q 232 390 139 407 q 326 367 303 378 q 364 318 364 350 q 361 299 364 310 q 303 272 335 272 q 199 313 271 272 q 100 354 128 354 q 8 261 31 354 q 0 144 0 225 q 165 25 50 65 q 371 -7 258 -7 q 571 24 478 -7 q 733 286 733 97 q 690 454 733 394 q 542 544 646 514 q 358 665 363 599 q 438 739 353 739 q 567 694 493 739 q 596 686 581 686 q 677 729 639 686 q 715 815 715 772 q 706 853 715 836 z "},"T":{"ha":814,"x_min":1,"x_max":750,"o":"m 47 989 q 367 1010 163 1010 q 701 989 554 1010 q 750 851 750 967 q 710 726 750 747 q 642 693 683 693 q 581 706 621 693 q 522 718 540 718 q 492 703 501 718 q 486 665 486 694 q 509 399 486 576 q 532 132 532 221 q 515 44 532 57 q 361 3 461 3 q 240 57 265 3 q 225 139 225 72 q 252 401 225 226 q 279 663 279 575 q 274 694 279 690 q 239 715 264 715 q 175 703 219 715 q 107 692 131 692 q 47 706 74 692 q 1 846 1 729 q 47 989 1 961 z "},"U":{"ha":840,"x_min":0,"x_max":743,"o":"m 349 911 q 325 713 340 821 q 307 524 307 586 q 382 393 307 396 q 457 532 457 390 q 439 725 457 601 q 415 907 418 868 q 458 986 411 958 q 551 1008 497 1008 q 657 981 611 1008 q 721 894 708 950 q 743 656 743 792 q 711 340 743 513 q 596 65 669 108 q 376 1 561 1 q 153 69 179 1 q 29 324 68 142 q 0 614 0 457 q 28 886 0 751 q 90 981 42 950 q 203 1011 139 1011 q 294 993 251 1011 q 350 926 350 969 q 349 911 350 922 z "},"V":{"ha":826,"x_min":-6,"x_max":754,"o":"m 315 908 q 336 636 329 710 q 394 413 361 417 q 424 589 422 410 q 436 917 425 839 q 486 989 428 965 q 583 1007 528 1007 q 688 989 640 1007 q 750 915 754 964 q 693 414 729 638 q 575 49 640 93 q 408 0 517 0 q 235 40 290 0 q 71 403 150 103 q 0 896 -6 694 q 68 979 1 947 q 181 1004 122 1004 q 315 908 308 1004 z "},"W":{"ha":833,"x_min":0,"x_max":750,"o":"m 0 946 q 29 521 0 829 q 93 67 63 175 q 142 21 101 36 q 210 7 174 7 q 296 32 264 7 q 329 113 333 60 l 340 211 q 378 258 349 253 q 429 113 421 250 q 467 35 428 64 q 550 8 500 8 q 654 75 632 8 q 750 942 750 542 q 693 999 750 981 q 606 1011 654 1011 q 526 1000 563 1011 q 478 951 474 985 l 490 846 q 497 731 497 782 q 465 642 497 644 q 447 671 457 642 q 426 722 436 707 q 374 750 408 750 q 317 696 336 750 q 289 642 299 642 q 253 717 253 651 q 269 843 253 749 q 281 951 283 922 q 146 1014 281 1014 q 58 1001 97 1014 q 0 946 0 983 z "},"X":{"ha":813,"x_min":17,"x_max":742,"o":"m 28 868 q 79 968 26 924 q 186 1008 129 1008 q 264 988 228 1008 q 333 844 290 968 q 397 733 372 733 q 442 839 415 733 q 497 990 471 961 q 586 1018 536 1018 q 690 983 644 1018 q 733 890 735 947 q 690 719 732 803 q 610 590 668 675 q 560 496 564 524 q 640 354 564 463 q 728 176 713 251 q 742 111 742 149 q 707 30 742 58 q 618 1 672 1 q 551 11 588 1 q 488 74 513 7 q 446 201 474 117 q 389 274 421 272 q 331 201 363 274 q 272 69 303 138 q 185 0 235 0 q 66 44 115 -1 q 17 160 17 90 q 81 326 17 235 q 163 426 86 333 q 200 500 201 474 q 154 596 197 531 q 72 724 85 700 q 28 868 29 804 z "},"Y":{"ha":796,"x_min":29,"x_max":729,"o":"m 29 931 q 90 989 29 965 q 181 1008 139 1008 q 251 972 242 1008 q 285 890 269 949 q 313 804 303 824 q 374 764 333 763 q 488 968 457 768 q 576 1007 497 1007 q 672 988 626 1007 q 729 918 729 963 q 683 619 707 690 q 514 453 638 482 q 507 406 507 438 q 520 264 507 358 q 533 122 533 169 q 529 69 533 88 q 386 6 515 6 q 289 19 340 6 q 217 69 219 38 q 228 231 214 115 q 243 392 243 354 q 233 450 243 432 q 60 640 104 497 q 29 931 29 738 z "},"Z":{"ha":829,"x_min":4,"x_max":746,"o":"m 39 958 q 4 839 4 928 q 47 697 4 719 q 89 679 58 679 q 201 702 125 679 q 317 725 278 725 q 389 686 371 725 q 397 667 397 678 q 282 560 397 639 q 135 464 208 511 q 21 333 38 396 q 4 226 4 296 q 65 44 4 72 q 331 -7 131 -7 q 503 4 411 -7 q 665 44 622 18 q 746 174 746 74 q 729 258 746 217 q 674 321 708 307 q 633 329 660 329 q 523 311 596 329 q 413 293 450 293 q 374 313 379 293 q 521 436 371 354 q 706 578 682 524 q 736 758 736 626 q 682 942 736 885 q 340 1013 582 1013 q 39 958 125 1013 z "},"[":{"ha":761,"x_min":68,"x_max":700,"o":"m 421 1013 q 403 1013 415 1013 q 376 1014 386 1014 q 332 1014 376 1014 q 149 936 203 1014 q 69 508 72 826 q 101 206 68 313 q 306 10 156 39 q 539 0 356 0 q 671 7 658 0 q 700 104 700 19 q 697 210 700 119 q 643 257 696 257 q 585 252 624 257 q 528 247 547 247 q 378 506 365 247 q 399 682 371 625 q 543 758 436 758 q 576 757 533 758 q 607 757 576 757 q 690 826 690 757 q 681 983 689 964 q 592 1015 667 1015 q 507 1014 564 1015 q 421 1013 450 1013 z "},"\\":{"ha":760,"x_min":28,"x_max":707,"o":"m 260 986 q 182 1014 235 1014 q 79 982 125 1014 q 32 890 28 946 q 231 446 68 751 q 476 32 381 161 q 574 3 521 3 q 667 34 628 3 q 707 118 707 65 q 700 161 707 138 q 482 622 661 299 q 260 986 313 928 z "},"]":{"ha":778,"x_min":50,"x_max":682,"o":"m 329 1013 q 347 1013 335 1013 q 374 1014 364 1014 q 418 1014 374 1014 q 601 936 547 1014 q 681 508 678 826 q 649 206 682 313 q 444 10 594 39 q 211 0 394 0 q 79 7 92 0 q 50 104 50 19 q 53 210 50 119 q 107 257 54 257 q 165 252 126 257 q 222 247 203 247 q 372 506 385 247 q 351 682 379 625 q 207 758 314 758 q 174 757 217 758 q 143 757 174 757 q 60 826 60 757 q 69 983 61 964 q 158 1015 83 1015 q 243 1014 186 1015 q 329 1013 300 1013 z "},"^":{"ha":796,"x_min":82,"x_max":701,"o":"m 550 929 q 386 1022 449 1019 q 200 896 307 1017 q 82 697 97 781 q 106 621 82 654 q 171 588 129 588 q 214 600 194 588 q 306 726 243 626 q 386 804 354 804 q 479 715 411 804 q 576 609 553 619 q 622 599 599 599 q 681 628 661 599 q 701 697 701 657 q 550 929 701 793 z "},"_":{"ha":821,"x_min":54,"x_max":721,"o":"m 101 219 q 357 235 185 235 q 665 219 563 235 q 721 129 721 211 q 678 28 721 64 q 326 14 543 14 q 93 24 175 14 q 54 115 54 43 q 101 219 54 197 z "},"`":{"ha":644,"x_min":228,"x_max":542,"o":"m 228 915 q 301 768 228 839 q 440 704 367 704 q 513 732 485 704 q 542 804 542 760 q 485 932 542 867 q 321 1008 403 1008 q 254 982 281 1008 q 228 915 228 956 z "},"a":{"ha":824,"x_min":15,"x_max":726,"o":"m 74 836 q 356 919 158 919 q 631 825 551 919 q 711 613 688 792 q 726 369 726 500 q 690 71 726 153 q 585 4 678 4 q 501 47 511 4 q 354 18 435 18 q 85 107 183 18 q 15 317 15 197 q 75 472 15 417 q 260 547 156 547 q 443 504 325 547 q 496 564 496 504 q 471 637 496 603 q 410 683 446 671 q 318 699 364 699 q 213 671 274 699 q 133 643 151 643 q 74 664 106 643 q 39 757 39 713 q 74 836 39 803 m 238 292 q 257 246 238 258 q 306 235 268 239 q 376 242 346 231 q 415 293 415 256 q 317 368 415 354 q 259 351 281 374 q 238 292 238 329 z "},"b":{"ha":794,"x_min":26,"x_max":735,"o":"m 65 958 q 39 790 51 929 q 26 482 26 651 q 71 99 26 197 q 197 21 94 46 q 351 3 269 3 q 526 25 444 3 q 647 88 615 49 q 735 326 735 192 q 643 543 735 461 q 489 589 563 589 q 390 565 449 589 q 322 542 331 542 q 303 551 310 542 q 279 657 279 588 q 299 800 279 706 q 319 942 319 894 q 317 961 319 954 q 192 1013 303 1013 q 65 958 85 1013 m 297 297 q 353 379 297 371 q 406 385 389 385 q 478 329 464 385 q 482 301 482 313 q 389 232 482 249 q 328 246 358 226 q 297 297 297 265 z "},"c":{"ha":797,"x_min":10,"x_max":742,"o":"m 519 865 q 394 854 418 858 q 235 785 303 838 q 22 536 106 703 q 10 435 10 490 q 94 165 10 264 q 186 86 143 110 q 318 35 199 79 q 454 14 407 14 q 579 39 518 14 q 700 115 669 76 q 738 233 731 153 q 717 303 742 275 q 650 332 692 332 q 600 321 625 332 q 467 276 528 276 q 351 314 411 276 q 299 442 299 386 q 417 597 299 536 q 613 667 456 617 q 636 735 636 690 q 604 821 636 786 q 519 865 572 856 z "},"d":{"ha":824,"x_min":15,"x_max":724,"o":"m 685 958 q 711 790 699 929 q 724 482 724 651 q 679 99 724 197 q 553 21 656 46 q 399 3 481 3 q 224 25 306 3 q 103 88 135 49 q 15 326 15 192 q 107 543 15 461 q 261 589 188 589 q 360 565 301 589 q 428 542 419 542 q 447 551 440 542 q 471 657 471 588 q 451 800 471 706 q 431 942 431 894 q 433 961 431 954 q 558 1013 447 1013 q 685 958 665 1013 m 453 297 q 397 379 453 371 q 344 385 361 385 q 272 329 286 385 q 268 301 268 313 q 361 232 268 249 q 422 246 392 226 q 453 297 453 265 z "},"e":{"ha":814,"x_min":10,"x_max":742,"o":"m 406 865 q 276 856 356 864 q 22 536 79 811 q 10 435 10 476 q 94 165 10 264 q 186 86 143 110 q 318 35 199 79 q 454 14 407 14 q 579 39 518 14 q 700 115 669 76 q 738 233 731 153 q 717 303 742 275 q 650 332 692 332 q 600 321 625 332 q 483 285 543 285 q 351 314 460 285 q 310 341 328 321 q 293 385 293 361 q 317 425 293 411 q 331 428 321 428 q 415 416 357 428 q 501 404 472 404 q 697 593 665 404 q 464 869 697 869 q 406 865 461 869 m 333 650 q 356 690 333 675 q 404 704 378 704 q 451 690 429 704 q 474 650 474 675 q 451 610 474 625 q 404 596 429 596 q 356 610 378 596 q 333 650 333 625 z "},"f":{"ha":811,"x_min":4,"x_max":742,"o":"m 56 708 q 82 713 67 713 q 142 703 100 713 q 204 694 183 694 q 260 708 235 694 q 269 767 276 718 q 260 868 258 844 q 453 1015 267 1015 q 590 986 525 1015 q 625 949 624 951 q 638 910 638 931 q 622 842 638 888 q 554 819 581 819 q 534 822 547 819 q 514 825 521 825 q 467 772 467 825 q 488 713 467 736 q 589 703 500 689 q 711 696 686 717 q 742 606 742 678 q 733 538 742 574 q 704 479 724 488 q 588 475 674 465 q 501 465 511 485 q 489 399 489 453 q 499 245 489 347 q 510 92 510 143 q 506 39 510 58 q 386 1 488 1 q 256 53 263 1 q 244 146 244 88 q 253 278 244 190 q 263 411 263 367 q 210 488 263 488 q 149 479 189 488 q 89 471 110 471 q 56 478 69 471 q 4 594 4 492 q 56 708 4 697 z "},"g":{"ha":832,"x_min":0,"x_max":743,"o":"m 165 -114 q 354 -149 268 -149 q 658 38 556 -149 q 743 419 743 192 q 726 606 743 514 q 661 778 706 729 q 521 853 617 826 q 360 874 443 874 q 103 785 176 874 q 15 546 15 678 q 107 329 15 411 q 264 283 188 283 q 375 308 308 283 q 451 332 442 332 q 472 322 465 332 q 488 275 488 301 q 421 164 488 210 q 292 124 360 124 q 154 172 218 124 q 108 182 131 182 q 39 154 71 182 q 0 90 7 126 q 28 7 18 21 q 165 -114 58 -40 m 467 589 q 411 507 467 515 q 358 501 375 501 q 286 557 300 501 q 282 585 282 574 q 375 654 282 638 q 436 640 406 660 q 467 589 467 621 z "},"h":{"ha":786,"x_min":33,"x_max":726,"o":"m 47 951 q 151 1013 57 1013 q 224 1003 181 1013 q 279 971 279 990 q 293 907 293 954 q 278 765 293 860 q 264 622 264 669 q 288 557 264 557 q 362 574 301 557 q 460 592 422 592 q 600 574 524 592 q 726 254 726 526 q 697 31 726 82 q 604 -1 683 -1 q 509 22 533 -1 q 485 114 485 46 q 488 181 485 136 q 492 249 492 226 q 419 351 492 351 q 325 328 383 351 q 296 254 296 321 q 300 181 296 229 q 304 108 304 133 q 293 43 304 63 q 183 -1 283 -1 q 65 43 78 -1 q 33 697 33 474 q 47 951 33 861 z "},"i":{"ha":414,"x_min":4,"x_max":332,"o":"m 39 590 q 161 636 64 636 q 296 585 267 636 q 318 308 318 544 q 300 42 318 100 q 165 -4 281 -4 q 42 38 60 -4 q 11 340 11 107 q 39 590 11 553 m 8 865 q 186 1014 18 1017 q 281 985 250 1013 q 326 896 311 958 q 332 853 332 874 q 283 738 332 779 q 158 696 233 696 q 48 747 92 696 q 8 865 4 799 z "},"j":{"ha":818,"x_min":7,"x_max":739,"o":"m 463 539 q 508 608 463 582 q 592 631 546 631 q 704 546 688 631 q 739 219 739 368 q 661 -62 739 24 q 389 -153 581 -153 q 169 -97 265 -153 q 22 72 65 -37 q 7 149 7 111 q 82 250 7 221 q 143 261 121 261 q 218 225 179 261 q 275 161 229 215 q 351 132 300 132 q 460 171 421 132 q 496 308 496 226 q 479 425 496 349 q 463 539 463 501 m 356 865 q 533 1014 365 1017 q 628 985 597 1013 q 674 896 658 958 q 679 851 679 874 q 630 737 679 778 q 506 696 581 696 q 395 747 439 696 q 356 865 351 799 z "},"k":{"ha":818,"x_min":17,"x_max":746,"o":"m 38 967 q 151 1014 44 1014 q 292 942 286 1014 q 296 871 296 918 q 296 815 296 815 q 294 782 296 804 q 294 758 294 765 q 331 603 294 622 q 413 663 379 593 q 472 796 428 696 q 571 871 514 871 q 681 828 628 871 q 733 731 733 786 q 728 697 733 715 q 519 463 688 561 q 670 333 611 419 q 740 143 729 246 q 693 51 746 88 q 589 21 647 21 q 500 47 535 21 q 449 149 476 78 q 401 256 415 235 q 331 304 371 304 q 307 301 319 304 q 275 228 275 282 q 307 76 275 176 q 183 4 290 4 q 82 32 124 4 q 33 121 36 64 q 17 608 17 504 q 38 967 17 832 z "},"l":{"ha":565,"x_min":18,"x_max":506,"o":"m 43 929 q 188 999 68 999 q 331 938 303 999 q 343 838 343 897 q 319 636 343 769 q 296 436 296 503 q 301 389 296 406 q 300 356 300 368 q 422 265 300 258 q 506 157 506 263 q 449 44 506 74 q 283 3 367 3 q 78 106 156 3 q 18 472 18 185 q 43 929 18 664 z "},"m":{"ha":838,"x_min":14,"x_max":738,"o":"m 707 38 q 618 -3 685 -3 q 549 42 560 -3 q 531 169 531 63 l 531 268 q 513 360 531 363 q 489 242 489 361 q 489 221 489 236 q 490 189 490 200 q 490 136 490 189 q 481 33 490 57 q 431 6 474 15 q 369 -3 397 -3 q 282 38 296 -3 q 276 96 276 54 q 278 167 276 119 q 279 239 279 215 q 251 351 279 350 q 229 204 229 353 q 235 38 229 131 q 144 -1 213 -1 q 88 7 118 -1 q 43 38 46 18 q 14 503 14 235 q 43 811 14 750 q 153 869 63 869 q 243 828 236 869 l 256 751 q 296 835 250 800 q 388 865 336 865 q 514 767 482 865 q 615 863 535 863 q 713 796 679 863 q 738 453 738 693 q 707 38 738 142 z "},"n":{"ha":838,"x_min":11,"x_max":740,"o":"m 297 56 q 175 1 299 1 q 42 51 50 1 q 11 486 11 232 q 43 811 11 744 q 142 871 63 871 q 204 857 176 871 q 242 810 239 840 q 244 788 242 792 q 265 778 249 779 q 317 796 294 775 q 374 835 343 822 q 481 857 426 857 q 656 790 582 857 q 729 622 731 722 q 740 399 740 525 q 707 38 740 150 q 585 -1 686 -1 q 482 44 493 -1 q 469 135 469 58 q 472 231 469 167 q 474 328 474 296 q 406 538 474 549 q 333 524 392 535 q 292 465 299 517 q 289 386 289 451 q 297 56 289 410 z "},"o":{"ha":814,"x_min":21,"x_max":725,"o":"m 256 867 q 101 707 160 831 q 29 486 72 644 q 21 365 21 418 q 52 190 21 260 q 160 44 83 121 q 351 4 247 4 q 576 42 447 4 q 701 196 674 113 q 722 438 725 267 q 585 761 688 661 q 256 867 475 867 m 257 406 q 279 492 258 439 q 329 557 304 556 q 422 536 378 560 q 474 461 474 508 q 361 324 474 324 q 257 406 253 324 z "},"p":{"ha":799,"x_min":29,"x_max":738,"o":"m 68 -100 q 42 71 54 -71 q 29 385 29 213 q 74 774 29 675 q 200 851 97 826 q 354 869 272 869 q 529 847 447 869 q 650 785 618 824 q 738 546 738 681 q 646 329 738 411 q 492 283 565 283 q 392 307 451 283 q 325 331 333 331 q 306 321 313 331 q 282 214 282 285 q 302 65 282 164 q 322 -83 322 -35 q 319 -103 322 -96 q 194 -154 306 -154 q 68 -100 88 -154 m 300 575 q 356 493 300 501 q 408 488 392 488 q 481 543 467 488 q 485 571 485 560 q 392 640 485 624 q 331 626 361 646 q 300 575 300 607 z "},"q":{"ha":814,"x_min":15,"x_max":724,"o":"m 685 -100 q 711 71 699 -71 q 724 385 724 213 q 679 774 724 675 q 553 851 656 826 q 399 869 481 869 q 224 847 306 869 q 103 785 135 824 q 15 546 15 681 q 107 329 15 411 q 261 283 188 283 q 360 307 301 283 q 428 331 419 331 q 447 321 440 331 q 471 214 471 285 q 451 65 471 164 q 431 -83 431 -35 q 433 -103 431 -96 q 558 -154 447 -154 q 685 -100 665 -154 m 453 575 q 397 493 453 501 q 344 488 361 488 q 272 543 286 488 q 268 571 268 560 q 361 640 268 624 q 422 626 392 646 q 453 575 453 607 z "},"r":{"ha":792,"x_min":14,"x_max":747,"o":"m 56 819 q 14 540 14 765 q 28 290 14 433 q 81 65 47 85 q 206 7 103 7 q 332 65 304 7 q 350 124 350 81 q 332 258 350 168 q 314 393 314 349 q 333 463 314 443 q 489 536 361 507 q 693 579 557 550 q 736 619 721 582 q 747 682 747 649 q 731 756 747 726 q 668 790 708 793 q 604 794 636 794 q 336 718 468 794 q 304 731 304 714 q 313 774 306 738 q 304 819 318 804 q 199 867 299 867 q 121 857 160 867 q 56 819 67 844 z "},"s":{"ha":811,"x_min":0,"x_max":733,"o":"m 706 729 q 600 826 642 803 q 417 864 533 864 q 158 781 275 864 q 29 551 29 688 q 83 417 29 475 q 232 342 140 354 q 364 281 364 324 q 361 264 364 274 q 303 242 335 242 q 200 276 269 242 q 100 311 131 311 q 8 236 31 311 q 0 135 0 208 q 165 31 51 67 q 361 3 257 3 q 571 33 485 3 q 733 254 733 90 q 683 401 733 350 q 542 471 640 446 q 358 572 363 515 q 382 621 356 603 q 438 635 404 635 q 567 597 493 635 q 596 590 581 590 q 676 625 636 590 q 715 699 715 660 q 706 729 715 715 z "},"t":{"ha":813,"x_min":4,"x_max":746,"o":"m 56 592 q 79 588 67 588 q 130 597 96 588 q 181 606 164 606 q 232 592 207 606 q 243 550 243 586 q 230 396 243 499 q 217 242 217 293 q 239 115 217 157 q 436 6 297 6 q 651 61 549 6 q 746 199 746 113 q 672 314 746 283 q 639 318 654 318 q 574 295 608 318 q 525 272 540 272 q 499 278 514 272 q 463 425 463 292 q 488 588 463 560 q 589 597 500 611 q 711 604 686 583 q 742 694 742 622 q 733 763 742 726 q 704 821 724 813 q 592 824 675 835 q 497 847 497 811 q 504 878 497 817 q 510 963 511 940 q 453 1007 508 992 q 375 1017 415 1017 q 256 969 260 1017 q 268 863 253 931 q 251 826 268 851 q 219 818 242 818 q 159 824 199 818 q 99 831 119 831 q 56 822 72 831 q 4 706 4 808 q 56 592 4 603 z "},"u":{"ha":838,"x_min":0,"x_max":743,"o":"m 349 782 q 325 611 340 706 q 307 449 307 503 q 382 336 307 339 q 457 456 457 333 q 439 622 457 515 q 415 778 418 747 q 461 847 411 824 q 551 865 500 865 q 654 843 608 865 q 721 768 708 817 q 743 563 743 679 q 711 289 743 438 q 596 54 668 92 q 376 0 561 0 q 153 58 181 0 q 29 274 69 118 q 0 526 0 389 q 28 761 0 646 q 92 843 40 815 q 203 868 138 868 q 292 854 250 868 q 350 796 350 833 q 349 782 350 792 z "},"v":{"ha":832,"x_min":-6,"x_max":754,"o":"m 315 779 l 343 504 q 394 353 360 356 q 424 504 422 350 q 436 786 425 719 q 489 850 428 829 q 583 864 532 864 q 685 850 639 864 q 750 785 754 829 q 693 353 729 544 q 653 164 665 203 q 574 43 625 81 q 399 0 514 0 q 235 32 286 0 q 71 343 149 85 q 0 768 -6 594 q 72 840 1 814 q 181 861 125 861 q 267 844 231 861 q 315 779 315 824 z "},"w":{"ha":843,"x_min":0,"x_max":750,"o":"m 0 793 q 29 438 0 690 q 93 53 60 175 q 203 -1 108 -1 q 292 21 257 -1 q 329 99 336 47 l 340 197 q 378 244 349 239 q 429 99 421 236 q 464 26 428 53 q 547 -1 500 -1 q 654 61 631 -1 q 750 789 750 526 q 693 846 750 828 q 606 858 654 858 q 526 847 563 858 q 478 799 474 832 l 490 693 q 497 578 497 629 q 465 489 497 492 q 447 518 457 489 q 426 569 436 554 q 374 597 408 597 q 317 543 336 597 q 289 489 299 489 q 253 564 253 499 q 269 690 253 596 q 281 799 283 769 q 146 861 281 861 q 58 849 97 861 q 0 793 0 831 z "},"x":{"ha":815,"x_min":13,"x_max":736,"o":"m 24 743 q 79 829 22 793 q 182 861 129 861 q 260 843 224 861 q 329 724 286 826 q 393 631 369 631 q 438 719 411 631 q 493 846 467 821 q 582 869 532 869 q 679 843 636 869 q 729 761 731 813 q 686 615 728 690 q 606 499 661 571 q 556 417 560 439 q 637 297 560 393 q 724 149 714 201 q 736 97 736 121 q 693 24 736 49 q 607 3 658 3 q 547 10 579 3 q 482 68 507 11 q 444 163 464 115 q 385 229 415 228 q 326 169 358 229 l 268 58 q 181 0 231 0 q 67 33 115 -1 q 13 135 13 72 q 61 254 13 190 q 151 351 78 276 q 196 419 197 399 q 110 558 194 438 q 24 743 25 678 z "},"y":{"ha":799,"x_min":3,"x_max":739,"o":"m 3 786 q 71 853 3 829 q 175 869 122 869 q 289 818 282 869 q 311 683 300 742 q 374 593 326 603 q 440 678 424 593 q 464 815 447 724 q 586 864 478 864 q 682 844 640 864 q 736 772 739 819 q 689 586 732 694 q 574 342 654 499 q 431 68 526 250 q 211 -143 311 -149 q 74 -92 121 -139 q 43 -35 43 -61 q 163 206 43 29 q 247 346 247 331 q 242 354 247 351 q 51 557 117 400 q 3 786 3 674 z "},"z":{"ha":826,"x_min":4,"x_max":746,"o":"m 39 825 q 4 722 4 799 q 47 600 4 619 q 89 585 58 585 q 202 605 126 585 q 317 625 278 625 q 389 590 371 625 q 397 575 397 583 q 281 482 397 550 q 135 400 208 440 q 21 288 38 342 q 4 196 4 256 q 65 39 4 63 q 353 0 144 0 q 665 39 593 0 q 746 150 746 64 q 728 224 746 189 q 674 276 707 264 q 633 285 660 285 q 523 269 596 285 q 413 253 450 253 q 374 269 379 253 q 521 376 371 307 q 706 497 682 451 q 736 653 736 539 q 682 811 736 761 q 347 869 585 869 q 39 825 131 869 z "},"{":{"ha":726,"x_min":99,"x_max":668,"o":"m 390 1013 q 153 822 153 975 q 197 692 153 760 q 147 594 196 647 q 99 503 99 542 q 150 418 99 476 q 194 315 201 360 q 139 182 139 243 q 253 43 139 92 q 446 6 340 6 q 588 32 528 6 q 668 138 668 67 q 661 179 668 157 q 583 224 647 224 q 510 215 558 224 q 439 207 463 207 q 401 233 401 207 q 431 306 401 257 q 397 399 429 361 l 338 450 q 307 510 307 476 q 339 582 308 553 q 399 635 358 600 q 436 732 432 674 q 426 783 426 764 q 465 819 426 819 q 520 813 483 819 q 575 806 557 806 q 642 847 628 806 q 650 896 650 872 q 582 994 650 961 q 457 1018 531 1018 q 390 1013 425 1018 z "},"|":{"ha":419,"x_min":11,"x_max":318,"o":"m 39 993 q 164 1022 43 1022 q 296 988 279 1022 q 318 499 318 942 q 300 42 318 96 q 167 -4 285 -4 q 42 38 60 -4 q 11 554 11 107 q 39 993 11 956 z "},"}":{"ha":717,"x_min":60,"x_max":629,"o":"m 338 1013 q 575 822 575 975 q 531 692 575 760 q 581 594 532 647 q 629 503 629 542 q 578 418 629 476 q 533 315 526 360 q 589 182 589 243 q 475 43 589 92 q 282 6 388 6 q 140 32 200 6 q 60 138 60 67 q 67 179 60 157 q 144 224 81 224 q 217 215 169 224 q 289 207 265 207 q 326 233 326 207 q 297 306 326 257 q 331 399 299 361 l 390 450 q 421 510 421 476 q 389 582 419 553 q 329 635 369 600 q 292 732 296 674 q 301 783 301 764 q 263 819 301 819 q 208 813 244 819 q 153 806 171 806 q 86 847 100 806 q 78 896 78 872 q 146 994 78 961 q 271 1018 197 1018 q 338 1013 303 1018 z "},"~":{"ha":819,"x_min":21,"x_max":735,"o":"m 257 781 q 211 751 235 775 q 186 719 203 740 q 97 672 144 672 q 41 700 61 672 q 21 765 21 728 q 101 938 21 844 q 172 989 125 965 q 253 1013 218 1013 q 374 983 338 1013 q 414 928 381 978 q 478 897 433 899 q 532 932 507 897 q 572 988 550 958 q 638 1011 603 1011 q 707 980 679 1011 q 735 906 735 949 q 707 819 735 863 q 622 719 663 750 q 475 671 563 674 q 369 699 411 668 q 314 756 360 706 q 257 781 288 785 z "},"¡":{"ha":390,"x_min":21,"x_max":306,"o":"m 293 68 q 160 1 263 1 q 79 18 114 1 q 29 79 33 39 q 21 143 21 94 q 44 393 21 228 q 98 631 71 576 q 167 686 125 686 q 234 625 207 686 q 285 393 261 564 q 306 151 306 242 q 293 68 306 85 m 300 875 q 156 754 292 753 q 79 778 104 756 q 42 850 54 800 q 38 885 38 868 q 77 978 38 944 q 178 1011 117 1011 q 268 970 232 1011 q 300 875 304 929 z "},"¢":{"ha":828,"x_min":7,"x_max":774,"o":"m 207 118 q 217 203 207 136 q 225 254 219 226 q 236 264 228 264 q 247 250 249 264 q 236 163 246 235 q 233 75 231 114 q 292 24 246 24 q 390 76 346 24 q 415 124 401 90 q 438 169 429 157 q 449 175 442 175 q 460 163 460 175 q 458 156 460 160 q 415 39 422 99 q 439 31 417 32 q 663 40 569 25 q 729 75 706 47 q 749 131 749 108 q 725 176 749 142 q 689 257 697 217 q 660 353 674 331 q 557 421 614 429 q 510 438 511 414 q 426 611 501 565 q 421 621 421 615 q 424 774 425 739 q 396 922 421 871 q 342 951 382 951 q 282 886 282 951 l 282 650 q 271 638 282 638 q 258 650 260 638 q 249 868 258 760 q 222 938 244 919 q 181 947 208 947 q 104 871 121 947 q 96 747 97 840 q 93 604 94 607 q 31 443 31 506 q 49 358 31 394 q 79 289 75 307 l 81 286 q 78 271 81 281 q 75 256 75 261 q 75 163 75 163 q 85 72 76 107 l 97 47 q 124 39 108 39 q 178 65 153 39 q 207 118 199 88 m 263 914 q 342 975 279 975 q 418 932 397 975 q 446 628 453 858 q 533 442 524 575 q 568 446 544 444 q 708 282 678 432 q 731 200 710 278 l 731 201 q 753 179 739 194 q 774 132 774 163 q 749 63 774 99 l 749 61 q 667 17 725 26 q 494 4 588 4 q 392 39 392 4 l 392 44 q 289 0 344 0 q 211 65 224 0 q 115 14 175 14 q 78 33 88 14 l 63 64 l 61 65 q 51 256 51 110 q 53 270 51 261 q 56 285 56 279 q 25 353 53 299 q 7 443 7 389 q 71 615 7 511 q 72 781 71 671 q 103 935 75 899 q 181 971 132 971 q 263 914 243 971 m 239 442 q 260 469 239 460 l 265 469 q 272 471 268 469 l 279 471 q 303 438 307 471 q 268 407 299 407 q 239 442 239 407 m 279 447 q 270 444 275 447 q 265 439 265 442 q 267 433 265 436 l 269 431 q 279 440 278 433 l 279 447 m 468 465 q 479 453 479 465 q 468 442 479 442 q 438 438 449 442 q 421 449 421 431 q 468 465 421 465 m 228 394 q 285 371 260 371 q 307 378 300 371 q 321 392 314 385 l 326 396 q 344 411 338 404 q 357 400 357 411 q 335 374 357 390 q 286 347 319 347 q 214 375 253 347 q 208 383 208 378 q 221 396 208 396 q 228 394 225 396 m 78 446 l 122 446 q 135 433 135 446 q 122 422 135 422 l 78 422 q 67 433 67 422 q 78 446 67 446 m 88 411 l 128 411 q 139 399 139 411 q 128 388 139 388 l 88 388 q 76 399 76 388 q 88 411 76 411 m 438 436 l 463 436 q 475 424 475 436 q 463 411 475 411 l 438 411 q 426 424 426 411 q 438 436 426 436 m 443 406 l 472 406 q 485 394 485 406 q 472 382 485 382 l 443 382 q 431 394 431 382 q 443 406 431 406 m 93 371 l 132 371 q 144 360 144 371 q 132 347 144 347 l 93 347 q 81 360 81 347 q 93 371 81 371 m 354 507 q 347 517 354 517 q 340 507 340 517 q 347 499 340 499 q 354 507 354 499 m 378 507 q 347 474 378 474 q 317 507 317 474 q 347 540 317 540 q 378 507 378 540 m 210 506 q 203 515 210 515 q 197 506 197 515 q 203 496 197 496 q 210 506 210 496 m 233 506 q 203 472 233 472 q 172 506 172 472 q 203 539 172 539 q 233 506 233 539 m 356 853 l 356 658 q 344 647 356 647 q 332 658 332 647 l 332 853 q 344 865 332 865 q 356 853 356 865 m 182 847 l 182 654 q 169 642 182 642 q 158 654 158 642 l 158 847 q 169 860 158 860 q 182 847 182 860 z "},"£":{"ha":767,"x_min":-3,"x_max":694,"o":"m 161 22 q 103 0 118 0 q 88 3 94 0 l 86 3 q 14 74 33 17 l 14 75 q -3 185 -3 126 q 57 500 -3 268 q 38 554 60 513 q 8 613 11 599 l 8 614 q 4 675 4 642 q 54 897 4 804 q 121 949 79 944 q 178 900 151 949 q 213 851 206 851 q 239 853 203 851 q 322 874 274 860 q 348 919 331 876 q 396 963 365 963 q 449 911 418 963 q 524 671 524 785 q 507 572 524 619 q 671 339 642 483 q 694 181 694 219 q 499 0 694 0 q 440 1 479 0 q 381 3 400 3 q 350 19 368 1 l 347 22 q 224 -14 281 -14 q 163 19 183 -14 l 161 22 m 193 221 q 186 130 186 192 q 179 38 186 68 q 192 19 183 31 q 233 11 211 11 q 340 46 279 11 q 349 49 344 49 q 385 147 349 69 q 399 168 388 157 q 421 179 411 179 q 432 167 432 179 q 420 153 432 161 q 407 140 408 146 l 407 138 q 372 38 368 65 q 372 31 374 33 q 379 26 376 26 q 438 25 399 26 q 496 24 476 24 q 671 181 671 24 q 647 333 671 214 q 486 557 619 474 q 482 571 478 563 q 500 671 500 618 q 419 914 500 781 q 393 939 404 939 q 371 911 383 939 q 356 875 364 893 q 331 851 347 857 q 243 829 301 842 l 240 829 q 225 828 235 829 q 211 828 217 826 q 163 877 188 829 q 122 925 139 925 q 47 811 79 921 q 32 617 24 728 q 63 557 35 604 q 81 494 86 518 q 43 340 63 417 q 24 183 24 249 q 36 82 24 129 q 93 25 54 39 q 156 47 107 22 q 169 226 156 161 q 181 235 171 235 q 193 221 196 235 m 242 647 q 271 671 253 671 q 295 658 285 671 q 306 632 306 646 q 294 608 306 619 q 271 597 283 597 q 238 632 238 597 q 242 647 238 640 m 263 636 q 261 631 261 633 q 265 622 261 626 q 282 632 276 619 q 272 647 282 642 q 263 636 267 646 m 283 563 q 313 578 299 563 q 322 592 322 588 q 335 603 322 603 q 346 592 346 603 q 331 563 346 578 q 304 543 317 547 q 283 539 292 539 q 231 563 265 539 q 225 572 225 567 q 238 585 225 585 q 256 574 240 585 q 283 563 272 563 m 88 638 l 133 638 q 144 626 144 638 q 133 614 144 614 l 88 614 q 75 626 75 614 q 88 638 75 638 m 97 590 q 131 592 121 590 q 144 581 144 596 q 97 565 144 565 q 86 578 86 565 q 97 590 86 590 m 142 557 q 153 546 153 557 q 117 521 153 529 q 101 532 101 517 q 115 546 101 539 q 142 557 139 557 m 408 681 q 440 681 422 679 q 447 685 443 685 q 458 672 458 685 q 428 657 458 653 q 415 657 417 658 q 400 669 400 654 q 408 681 400 678 m 417 643 q 453 647 443 643 q 469 636 469 654 q 417 619 469 619 q 406 632 406 619 q 417 643 406 643 m 443 583 q 435 586 442 583 q 417 604 417 592 q 429 617 417 617 q 456 603 428 617 q 467 588 464 599 q 454 574 469 574 q 443 583 446 574 m 538 115 q 482 185 524 129 q 433 263 440 240 q 422 329 422 294 q 465 424 422 401 q 518 421 494 444 l 519 419 q 533 393 526 414 l 533 392 q 603 194 550 240 q 607 186 607 192 q 594 174 607 174 q 586 176 590 174 q 510 388 528 228 q 503 403 508 393 q 489 408 496 408 q 478 404 483 408 l 476 403 q 446 331 446 389 q 456 271 446 297 q 499 201 463 251 q 554 133 536 150 q 558 125 558 129 q 546 113 558 113 q 538 115 542 113 m 190 725 q 215 713 204 725 q 226 686 226 700 q 215 661 226 672 q 190 650 204 650 q 156 685 156 650 q 166 712 156 699 q 190 725 176 725 m 181 690 q 183 675 176 682 q 203 685 196 672 q 192 701 207 693 q 181 690 186 700 m 299 722 q 331 746 311 746 q 356 734 344 746 q 367 708 367 722 q 356 683 367 694 q 331 671 344 671 q 296 707 296 671 q 299 722 296 715 m 319 706 q 324 697 319 700 q 342 707 336 693 q 331 724 346 715 q 319 706 319 721 z "},"¤":{"ha":418,"x_min":0,"x_max":0,"o":""},"¥":{"ha":807,"x_min":26,"x_max":715,"o":"m 264 394 l 265 415 q 89 422 185 417 q 49 504 49 436 q 128 600 49 581 q 264 610 144 604 l 261 647 q 96 758 144 703 q 29 942 38 826 q 86 1004 26 985 q 181 1018 129 1019 q 253 922 215 1018 q 374 818 321 817 q 517 925 440 819 q 549 985 522 932 q 581 1021 567 1021 q 668 1001 631 1019 q 715 935 715 979 l 715 929 q 652 762 715 842 q 472 650 589 682 l 474 610 q 658 597 571 608 q 715 518 715 590 q 671 426 715 458 q 486 418 629 422 l 488 393 q 658 383 550 393 q 715 303 715 372 q 671 213 715 244 q 503 204 638 210 q 506 115 506 156 q 501 61 506 76 q 453 6 489 18 q 388 -3 436 0 q 264 43 281 -8 q 256 107 256 69 q 258 206 256 167 q 89 208 181 204 q 49 290 49 221 q 128 386 49 367 q 264 394 144 390 z "},"¦":{"ha":418,"x_min":0,"x_max":0,"o":""},"§":{"ha":815,"x_min":10,"x_max":729,"o":"m 511 867 q 526 924 524 917 q 572 951 540 951 q 633 929 606 951 q 660 875 660 907 q 641 826 660 854 q 622 792 622 799 q 650 751 626 785 q 692 596 692 693 q 649 421 692 486 q 619 379 624 382 q 663 322 619 374 q 706 236 706 271 q 678 203 706 214 q 628 185 651 193 q 526 113 553 154 l 525 104 q 532 97 525 97 l 538 99 q 643 161 601 161 q 678 124 678 161 q 657 60 678 89 q 603 31 636 31 q 479 40 561 31 q 356 49 397 49 q 258 42 325 49 q 199 31 254 40 q 139 24 161 24 q 78 52 101 24 q 54 118 54 81 q 82 154 54 154 q 196 75 132 154 q 207 89 207 75 q 154 151 207 119 q 71 179 101 183 q 35 240 36 217 q 49 278 46 264 q 129 374 129 357 q 83 461 129 382 q 36 600 36 540 q 100 783 36 697 q 101 792 100 788 q 87 828 101 796 q 72 879 72 861 q 106 932 72 911 q 168 950 133 950 q 215 923 192 950 q 238 872 238 896 q 251 863 238 863 q 318 874 274 863 q 386 886 363 886 q 439 878 401 886 q 488 865 476 871 q 501 858 499 858 q 511 869 511 860 l 511 867 m 364 636 q 338 697 364 674 q 274 719 313 719 q 164 654 201 719 q 143 588 143 617 q 174 515 143 546 q 247 483 206 483 q 335 535 301 483 q 364 636 364 579 m 343 500 q 372 465 343 465 q 394 478 383 465 q 406 503 406 492 q 382 532 406 532 q 343 500 343 532 m 613 604 q 576 679 613 649 q 494 710 540 710 q 430 683 454 710 q 406 614 406 656 q 440 532 406 572 q 515 492 474 492 q 584 527 556 492 q 613 604 613 563 m 285 76 q 297 64 285 64 q 324 81 296 64 q 374 99 353 99 q 421 92 386 99 q 437 74 424 90 q 453 57 450 57 q 465 68 465 57 q 374 122 465 122 q 322 107 356 122 q 285 76 285 90 m 315 454 q 303 442 303 454 l 303 432 l 306 422 q 382 393 336 393 q 458 439 458 393 q 446 450 458 450 q 432 437 439 450 q 421 422 425 424 q 383 417 408 417 q 326 436 349 417 q 315 454 328 454 m 239 243 q 250 231 239 231 q 378 285 310 285 q 503 231 442 285 q 514 243 514 231 q 457 290 514 268 q 378 308 410 308 q 243 251 293 308 q 239 243 239 247 m 249 507 q 191 531 215 507 q 167 588 167 554 q 185 643 167 611 q 224 688 203 675 q 275 696 238 696 q 340 636 340 696 q 318 551 340 589 q 249 507 292 507 m 242 643 q 253 621 242 632 q 275 610 264 610 q 301 621 286 610 q 315 643 315 632 q 275 682 315 682 q 252 669 263 682 q 242 643 242 657 m 267 646 l 268 650 l 275 658 q 292 643 283 658 q 274 635 281 636 q 267 646 271 636 m 381 508 q 382 503 382 507 q 369 490 382 497 l 367 500 l 369 507 l 381 508 m 515 515 q 456 548 483 515 q 429 614 429 581 q 496 686 429 686 q 560 662 531 686 q 589 603 589 638 q 567 543 589 571 q 515 515 546 515 m 461 638 q 472 615 461 626 q 494 604 483 604 q 520 615 506 604 q 535 638 535 626 q 522 665 535 653 q 494 676 510 676 q 461 638 461 676 m 485 640 l 486 646 l 494 653 q 510 638 503 653 q 493 629 500 631 q 485 640 489 631 m 388 910 q 260 888 339 910 q 225 946 253 918 q 168 974 197 974 q 89 949 125 974 q 49 879 49 921 q 76 792 49 843 q 13 600 13 713 q 60 456 13 536 l 106 375 l 106 372 q 33 290 81 346 l 33 290 q 10 236 10 246 q 53 165 10 204 q 31 118 31 150 q 61 35 31 71 q 138 0 92 0 q 246 13 174 0 q 354 25 318 25 q 478 16 396 25 q 603 7 561 7 q 674 46 646 7 q 700 125 700 81 q 672 176 700 167 l 672 176 q 713 198 697 178 q 729 244 729 218 q 699 315 729 276 q 646 376 672 346 q 715 590 715 456 q 649 793 715 722 q 683 875 683 835 q 652 945 683 917 q 579 974 621 974 q 489 888 501 974 q 388 910 454 910 z "},"¨":{"ha":778,"x_min":60,"x_max":676,"o":"m 494 996 q 549 1003 518 1003 q 669 917 638 1003 q 676 861 676 886 q 617 749 676 786 q 547 729 585 729 q 447 770 488 729 q 407 871 407 811 q 494 996 407 969 m 136 996 q 199 1008 167 1008 q 322 921 288 1008 q 333 863 333 893 q 269 754 333 793 q 200 733 236 733 q 100 774 140 733 q 60 875 60 815 q 136 996 60 965 z "},"©":{"ha":844,"x_min":1,"x_max":758,"o":"m 447 618 q 376 611 392 614 q 288 572 325 601 q 168 433 215 526 q 161 376 161 408 q 208 226 161 282 q 260 182 239 190 q 333 153 264 178 q 410 142 383 142 q 481 156 446 142 q 545 194 528 174 q 569 264 563 215 q 519 319 571 319 q 492 313 506 319 q 417 288 451 288 q 353 310 386 288 q 322 381 322 349 q 389 468 322 435 q 499 507 408 478 q 513 544 513 519 q 447 618 513 606 m 758 378 q 649 109 758 219 q 381 -1 539 -1 q 112 109 222 -1 q 1 378 1 219 q 112 647 1 536 q 381 757 222 757 q 649 647 539 757 q 758 378 758 536 m 692 378 q 601 599 692 508 q 381 690 511 690 q 159 599 250 690 q 68 378 68 508 q 159 156 68 247 q 381 65 250 65 q 601 156 511 65 q 692 378 692 247 z "},"ª":{"ha":1214,"x_min":11,"x_max":1143,"o":"m 11 706 q 11 710 11 710 q 82 843 17 800 q 122 856 101 856 q 175 829 156 856 q 232 756 218 769 q 310 717 269 717 q 397 778 364 717 q 435 838 422 824 q 472 851 453 851 q 525 818 500 851 q 551 760 543 793 l 551 757 q 549 735 551 750 q 546 715 546 721 q 556 656 553 696 q 564 599 558 617 q 646 608 603 608 q 794 583 718 608 q 932 675 835 675 q 1096 592 1031 675 q 1143 456 1143 531 q 1131 374 1143 417 q 1076 132 1104 286 q 867 -4 1038 -4 l 864 -3 q 840 17 853 0 l 833 24 q 800 13 824 26 q 769 -3 776 -1 l 768 -4 q 708 42 726 -4 q 690 121 703 65 q 643 146 685 146 q 579 140 658 146 l 524 136 q 479 107 489 129 q 418 22 446 49 q 319 -10 375 -17 q 283 31 290 -6 q 271 81 274 78 q 172 7 221 7 q 140 19 153 7 q 83 182 92 67 q 78 271 82 207 q 57 321 76 290 q 29 368 33 356 q 15 489 15 415 q 39 672 15 588 l 39 672 q 31 681 38 675 l 25 686 q 11 706 19 692 m 883 147 q 858 28 858 129 q 868 18 864 19 q 1056 136 1021 18 q 1111 379 1085 290 q 1122 453 1122 417 q 1067 594 1122 533 q 933 654 1013 654 q 811 568 843 654 q 808 536 810 557 q 815 504 807 518 q 906 458 850 458 q 951 497 951 458 q 947 521 951 508 l 928 521 q 917 531 917 521 q 928 542 917 542 l 956 542 q 974 500 974 542 q 899 439 974 439 q 797 492 838 439 q 786 528 786 511 q 790 563 786 540 q 646 588 715 588 q 561 576 601 588 q 539 619 544 572 q 529 697 538 647 q 515 678 529 686 q 489 671 501 671 q 449 682 469 671 q 429 707 429 688 q 439 738 429 718 q 458 757 449 757 q 469 746 469 757 q 465 739 469 742 q 450 708 450 724 q 456 701 450 703 l 457 701 q 511 703 496 682 q 528 703 519 714 q 525 710 526 706 l 525 714 q 528 735 525 721 q 531 757 531 750 q 472 831 511 831 q 414 763 450 831 q 310 696 378 696 q 222 736 265 696 q 157 818 197 760 q 122 835 146 835 q 94 826 107 835 q 33 713 44 793 q 54 696 46 704 q 76 694 61 696 q 99 692 92 692 q 136 710 121 692 q 143 713 139 713 q 154 703 154 713 q 135 680 154 689 q 99 671 115 671 q 61 675 103 671 q 60 665 61 669 q 35 478 35 582 q 60 350 35 388 q 85 314 72 332 q 99 272 97 292 l 104 185 q 121 99 108 136 q 174 28 146 28 q 258 101 203 28 q 267 106 261 106 q 294 81 285 106 q 303 40 299 61 q 322 11 310 13 q 460 117 401 0 q 579 161 482 161 q 644 168 635 168 q 711 125 701 168 q 726 60 715 103 q 767 18 736 18 q 799 36 772 19 q 835 44 818 49 l 838 44 q 878 167 836 167 q 889 156 889 167 q 883 147 889 150 m 299 431 q 282 449 282 432 q 283 492 282 489 l 285 494 q 303 500 292 501 q 321 497 328 497 q 331 488 331 497 q 299 431 331 426 m 310 478 q 301 479 307 478 l 303 451 q 310 478 311 457 m 376 375 l 378 379 q 397 399 385 399 q 408 388 408 399 q 403 378 408 383 q 397 371 399 374 l 396 367 q 383 356 390 356 q 317 347 349 347 q 239 361 276 347 q 232 371 232 364 q 247 381 232 386 q 376 375 307 358 m 481 492 l 531 492 q 540 482 540 492 q 531 471 540 471 l 481 471 q 469 482 469 471 q 481 492 469 492 m 497 458 l 531 458 q 540 449 540 458 q 531 438 540 438 l 497 438 q 486 449 486 438 q 497 458 486 458 m 513 425 q 540 399 540 411 q 531 388 540 388 q 515 397 526 388 q 501 407 504 406 q 497 415 497 408 q 513 425 497 432 m 72 469 l 138 469 q 149 460 149 469 q 138 449 149 449 l 72 449 q 61 460 61 449 q 72 469 61 469 m 83 438 l 128 438 q 138 426 138 438 q 128 415 138 415 l 83 415 q 72 426 72 415 q 83 438 72 438 m 100 381 l 133 397 q 149 388 149 404 q 143 378 149 381 l 110 361 q 94 371 94 354 q 100 381 94 378 m 386 574 l 388 572 q 396 564 390 568 q 399 575 401 567 q 392 582 394 582 l 386 574 m 382 599 q 392 603 386 603 q 419 576 419 603 q 401 543 419 550 l 397 543 q 371 558 385 543 l 369 561 l 368 563 q 365 569 365 567 q 382 599 365 588 m 210 557 l 211 556 q 219 547 214 551 q 222 558 225 550 q 215 565 218 565 l 210 557 m 215 586 q 243 560 243 586 q 224 526 243 533 l 221 526 q 194 542 207 526 l 193 544 l 192 546 q 189 553 189 550 q 215 586 189 586 z "},"«":{"ha":817,"x_min":11,"x_max":729,"o":"m 567 594 q 439 465 506 547 q 354 301 354 361 q 461 121 356 232 q 636 -3 564 15 q 701 22 674 -3 q 729 83 729 47 q 713 129 729 107 q 613 222 688 164 q 550 301 550 271 q 632 410 550 329 q 726 517 719 496 q 699 584 726 560 q 629 608 672 608 q 567 594 596 608 m 225 593 q 97 465 164 547 q 13 301 11 360 q 119 121 14 231 q 294 -3 221 14 q 359 22 331 -3 q 388 82 388 46 q 372 129 388 108 q 271 221 351 157 q 208 301 207 271 q 290 410 208 329 q 385 515 378 496 q 288 608 385 608 q 225 593 254 608 z "},"¬":{"ha":418,"x_min":0,"x_max":0,"o":""},"®":{"ha":844,"x_min":1,"x_max":758,"o":"m 220 574 q 229 609 220 574 q 361 643 238 643 q 493 608 436 643 q 561 497 558 568 q 560 435 563 447 l 557 424 q 510 372 547 385 q 486 344 483 364 q 531 286 489 342 q 564 188 563 243 q 496 142 565 142 q 450 151 468 142 q 422 228 438 161 q 368 281 410 282 q 349 264 349 282 q 356 224 349 250 q 363 185 363 199 q 357 164 363 171 q 293 138 336 138 q 222 164 235 138 q 203 371 203 226 q 220 574 203 506 m 336 479 q 374 436 336 436 q 424 479 426 436 q 375 513 421 513 q 336 479 336 513 m 758 378 q 649 109 758 219 q 381 -1 539 -1 q 112 109 222 -1 q 1 378 1 219 q 112 647 1 536 q 381 757 222 757 q 649 647 539 757 q 758 378 758 536 m 692 378 q 601 599 692 508 q 381 690 511 690 q 159 599 250 690 q 68 378 68 508 q 159 156 68 247 q 381 65 250 65 q 601 156 511 65 q 692 378 692 247 z "},"°":{"ha":418,"x_min":0,"x_max":0,"o":""},"±":{"ha":785,"x_min":29,"x_max":715,"o":"m 88 211 q 343 226 171 226 q 651 211 543 226 q 706 110 706 203 q 664 19 706 32 q 313 7 529 7 q 79 15 161 7 q 42 115 42 46 q 88 211 42 190 m 664 564 q 571 564 656 563 q 482 553 508 564 q 478 531 478 544 q 483 474 478 511 q 488 417 488 436 q 372 299 488 299 q 283 351 296 299 q 269 425 269 381 q 272 472 269 440 q 274 519 274 504 q 271 556 274 540 q 250 560 264 560 q 199 555 233 560 q 147 550 164 550 q 71 567 104 550 q 29 664 29 599 q 142 760 29 760 q 192 757 158 760 q 242 754 225 754 q 265 756 256 754 q 260 814 267 769 q 258 965 244 906 q 368 1018 269 1018 q 483 964 468 1018 q 493 908 493 942 q 486 836 493 878 q 476 772 476 775 q 478 753 475 760 q 507 744 488 744 q 560 752 524 744 q 617 760 597 760 q 715 649 715 760 q 664 564 715 568 z "},"²":{"ha":521,"x_min":6,"x_max":419,"o":"m 25 931 q 217 1022 82 1022 q 329 999 276 1022 q 406 919 392 969 q 415 854 415 883 q 303 706 415 756 q 261 683 263 688 q 336 692 301 692 q 385 683 367 692 q 419 624 419 675 q 392 561 419 571 q 194 542 381 542 q 21 563 44 542 q 6 619 6 593 q 67 722 6 674 q 181 792 88 739 q 242 847 242 826 q 225 882 242 860 q 169 897 214 897 q 121 867 142 897 q 74 835 100 836 q 7 879 7 833 q 25 931 7 901 z "},"³":{"ha":518,"x_min":14,"x_max":417,"o":"m 361 571 q 190 533 321 533 q 18 604 18 533 q 38 660 18 636 q 74 674 49 674 q 131 665 93 674 q 188 656 168 656 q 229 700 229 656 q 193 733 229 733 q 153 729 179 733 q 114 725 128 725 q 53 778 58 725 q 128 833 60 833 l 149 833 q 168 832 163 832 q 218 874 221 832 q 168 911 206 911 q 110 899 150 911 q 53 886 71 886 q 38 889 44 886 q 14 932 14 907 q 201 1017 14 1017 q 358 975 325 1017 q 399 881 399 933 q 344 793 399 821 q 417 688 417 756 q 361 571 417 622 z "},"´":{"ha":607,"x_min":217,"x_max":531,"o":"m 531 922 q 456 776 531 850 q 318 711 389 711 q 245 739 274 711 q 217 811 217 767 q 274 939 217 881 q 438 1017 350 1017 q 505 990 479 1017 q 531 922 531 964 z "},"¶":{"ha":1261,"x_min":8,"x_max":1175,"o":"m 861 22 q 829 12 851 22 q 794 1 807 1 q 724 60 757 1 q 694 139 696 108 q 693 183 694 161 q 679 221 690 213 q 636 236 665 236 q 575 204 596 236 q 544 136 567 193 q 508 60 525 85 q 418 0 469 0 q 340 50 388 0 q 258 7 296 7 q 221 17 240 7 q 157 147 157 49 q 169 244 157 189 q 45 339 82 282 q 8 492 8 396 q 79 739 8 614 l 81 740 q 144 800 129 789 q 228 836 158 811 q 293 860 282 860 q 331 864 304 860 q 371 864 354 868 l 374 864 q 410 858 378 861 q 475 836 443 856 q 539 804 517 811 q 568 825 547 810 q 597 838 585 838 q 624 826 610 838 q 654 807 650 806 l 656 807 q 690 827 660 807 q 743 843 719 847 l 744 842 q 774 822 756 840 q 794 804 793 804 q 833 822 807 804 q 872 839 860 839 q 924 803 897 839 q 940 788 928 796 q 1008 808 993 808 q 1047 797 1026 808 q 1094 722 1094 772 q 1088 692 1094 707 l 1094 689 q 1161 622 1161 675 q 1129 565 1161 592 q 1168 510 1161 550 q 1136 439 1174 478 q 1175 375 1175 419 q 1140 317 1175 336 q 1164 271 1164 300 q 1131 224 1164 235 q 1113 218 1126 222 q 1046 79 1075 124 q 925 -3 992 -3 q 861 22 888 -3 m 122 300 q 186 324 172 294 q 196 331 189 331 q 206 315 213 331 q 146 279 190 283 q 172 267 158 272 q 182 269 175 271 q 243 292 214 263 q 250 294 246 294 q 261 283 261 294 q 258 276 261 279 q 193 247 228 247 q 186 190 193 228 q 179 132 179 151 q 231 36 179 61 q 258 29 244 29 q 299 43 278 29 q 328 68 314 56 q 319 235 332 126 q 326 247 317 244 q 344 221 340 251 q 349 74 349 183 l 349 72 q 419 22 399 22 q 513 113 474 22 q 563 224 560 221 q 635 257 585 257 q 715 172 715 257 q 732 81 715 124 q 796 24 754 24 q 856 43 797 24 q 868 139 865 124 q 897 229 878 200 q 906 235 900 235 q 917 224 917 235 q 915 218 917 221 q 875 38 899 190 q 926 18 896 18 q 1093 228 1013 18 q 1119 242 1096 235 q 1142 264 1139 249 q 1114 307 1146 290 q 1106 318 1106 310 q 1117 329 1106 326 q 1154 376 1154 340 q 1122 422 1154 411 q 1110 433 1110 425 q 1131 463 1110 438 q 1147 507 1151 488 q 1106 550 1140 547 q 1094 557 1096 551 q 1100 569 1092 564 q 1139 622 1139 596 q 1138 638 1139 629 q 1094 668 1131 657 q 1058 683 1058 679 q 1063 690 1058 686 q 1074 724 1074 706 q 1053 768 1074 750 q 1006 786 1032 786 q 969 776 993 786 q 940 765 946 765 q 907 791 929 765 q 871 817 885 817 q 838 800 861 817 q 800 783 815 783 q 768 799 788 779 q 739 822 749 818 q 697 805 724 824 q 657 786 671 786 q 622 801 643 783 q 596 817 600 818 q 567 799 588 814 q 539 783 546 783 l 538 783 q 565 719 549 763 q 576 607 576 667 q 469 417 576 443 q 363 414 400 399 q 269 593 272 449 q 314 711 268 681 q 369 728 340 728 q 439 676 421 728 q 435 593 457 624 q 426 589 431 589 q 415 599 415 589 q 420 613 415 600 q 425 636 425 626 q 396 701 425 692 q 369 706 383 706 q 314 685 335 706 l 314 685 q 363 638 363 653 q 351 626 363 626 q 343 632 346 626 q 301 668 336 643 q 290 600 290 644 q 294 540 290 574 q 340 563 310 549 q 354 553 354 567 q 347 543 354 544 q 297 519 328 532 q 356 440 306 468 l 364 449 l 364 451 q 401 508 375 481 q 410 511 406 511 q 421 500 421 511 q 417 493 421 496 q 385 446 392 468 q 376 431 381 435 q 414 426 394 426 q 481 443 447 426 q 449 497 468 458 q 457 511 446 508 q 469 503 467 513 q 499 454 469 500 q 549 535 538 488 q 500 579 504 550 q 510 590 499 589 q 523 578 515 592 q 551 556 531 564 q 556 622 556 590 q 554 660 556 642 l 503 660 q 492 671 492 660 q 503 681 492 681 l 551 681 q 530 744 549 700 q 511 793 511 789 l 507 794 q 483 750 496 778 q 469 743 479 739 q 463 756 460 746 q 489 804 472 771 q 451 825 463 819 q 411 838 428 836 q 400 779 411 818 q 388 772 397 769 q 381 786 378 775 q 390 839 385 803 q 365 844 375 839 q 311 840 353 846 q 304 776 307 818 q 296 764 306 765 q 283 774 285 763 q 290 838 288 794 q 235 817 285 838 q 158 784 174 794 q 97 726 143 774 q 32 493 32 613 q 54 365 32 425 q 115 297 74 326 q 122 300 118 300 m 143 544 q 100 576 108 544 q 104 617 93 599 q 139 636 115 636 q 182 596 182 636 q 143 544 182 544 m 160 596 q 131 614 160 624 q 119 593 119 610 q 142 567 119 567 q 160 596 160 567 z "},"¸":{"ha":418,"x_min":0,"x_max":0,"o":""},"¹":{"ha":428,"x_min":26,"x_max":324,"o":"m 26 936 q 103 999 26 978 q 197 1008 138 1008 q 293 982 267 1008 q 324 813 324 950 q 303 561 324 656 q 203 522 294 522 q 107 550 118 522 q 104 597 104 568 q 113 721 104 639 q 121 844 121 803 q 89 917 121 917 q 72 914 83 917 q 54 911 60 911 q 26 936 26 911 z "},"º":{"ha":1328,"x_min":11,"x_max":1249,"o":"m 1150 689 q 1198 633 1176 676 q 1219 560 1219 590 q 1157 453 1219 504 q 1222 394 1196 433 q 1249 314 1249 356 q 1131 172 1249 222 q 986 135 1083 153 q 971 71 979 103 q 925 29 957 33 q 689 29 801 10 q 557 42 614 42 q 389 17 468 42 q 319 4 350 4 q 282 0 301 0 q 151 22 275 0 l 150 22 q 117 42 133 25 q 86 72 101 58 q 51 139 81 76 l 50 143 q 49 182 49 163 q 61 274 49 218 q 81 365 78 349 q 40 369 46 363 q 11 433 11 404 q 32 487 11 454 q 56 532 53 519 l 51 535 q 11 568 11 561 q 15 576 11 574 q 34 585 19 579 q 60 610 49 590 l 88 719 q 136 804 110 804 q 160 791 146 804 q 179 768 175 778 q 186 768 182 767 q 240 821 217 821 q 265 810 251 821 q 276 788 272 806 q 306 817 276 788 l 307 818 q 324 824 315 824 q 333 817 332 824 l 335 815 q 351 806 343 815 q 372 781 372 790 q 368 772 372 776 q 375 743 364 768 q 396 715 393 724 q 428 636 407 658 q 472 624 453 624 q 494 629 485 624 l 496 631 q 581 711 528 650 q 667 789 631 768 q 917 854 765 846 q 1115 804 1053 863 q 1156 719 1156 767 q 1150 689 1156 704 m 846 575 q 982 657 981 657 q 1131 694 1067 701 q 1133 718 1133 707 q 1103 787 1133 757 q 1032 825 1072 817 q 947 833 992 833 q 678 771 788 833 q 593 692 644 751 q 507 613 542 632 q 472 601 492 601 q 417 618 450 601 l 414 619 q 375 708 388 646 q 360 729 371 715 l 357 732 q 346 769 346 756 q 349 781 346 776 l 324 797 q 317 799 319 799 q 265 765 281 763 q 256 776 258 767 l 253 792 q 236 797 243 797 q 229 794 232 797 q 203 754 221 786 l 201 753 q 178 747 193 744 q 158 761 161 749 q 136 782 150 776 q 99 669 121 769 q 42 564 79 578 q 78 532 78 542 q 63 494 78 518 q 32 433 32 447 q 56 385 32 413 q 74 386 61 385 q 92 388 86 388 q 101 376 103 388 q 83 276 100 346 q 69 176 69 213 q 71 147 69 161 q 97 90 82 119 q 154 43 117 69 q 219 31 172 42 q 286 22 261 22 q 315 25 301 22 l 318 25 q 382 36 347 25 q 557 63 465 63 q 693 50 619 63 q 922 50 801 32 q 959 103 947 54 q 976 154 971 153 q 1114 189 1068 171 q 1219 276 1192 219 q 1228 313 1228 293 q 1201 389 1228 353 q 1138 439 1175 425 q 1053 394 1104 417 q 966 356 972 358 q 957 353 960 353 q 949 364 949 353 q 956 374 949 371 q 1085 432 999 393 q 1189 522 1157 467 q 1199 558 1199 539 q 1158 656 1199 608 q 1108 674 1143 674 q 976 629 1050 674 q 854 557 861 560 q 839 567 839 550 q 846 575 839 572 m 238 469 q 308 514 296 479 q 315 557 315 535 q 292 619 315 597 q 289 626 289 624 q 300 638 289 638 q 307 635 304 638 q 336 557 336 606 q 290 464 336 490 q 238 447 261 447 q 219 458 219 447 q 197 518 196 500 q 208 528 197 528 q 225 503 215 526 q 238 469 231 486 m 751 250 q 778 189 778 222 q 663 97 778 118 q 568 89 617 89 q 318 268 318 89 q 349 417 318 322 q 365 444 353 432 q 372 449 368 449 q 383 438 383 449 q 381 431 383 433 q 358 379 369 419 q 340 268 340 314 q 579 110 340 110 q 757 188 757 110 q 700 256 757 240 q 692 268 690 260 q 703 276 693 276 q 760 269 719 276 q 815 264 796 263 q 738 384 814 311 q 661 468 661 457 q 672 479 661 479 q 682 474 679 479 q 742 406 697 446 q 808 340 793 360 q 836 253 839 300 q 763 247 835 229 l 751 250 m 190 633 q 175 651 190 651 q 160 633 160 651 q 175 615 160 615 q 190 633 190 615 m 211 633 q 175 594 211 594 q 139 633 139 594 q 175 672 139 672 q 211 633 211 672 z "},"»":{"ha":819,"x_min":21,"x_max":738,"o":"m 396 301 q 304 138 396 236 q 151 13 225 51 q 114 -3 122 -3 q 49 22 76 -3 q 21 83 21 46 q 110 200 21 126 q 200 301 200 274 q 112 416 200 326 q 24 517 24 506 q 51 583 24 558 q 121 608 78 608 q 183 594 158 608 q 224 558 188 592 q 396 301 396 397 m 738 301 q 644 138 738 238 q 493 13 564 50 q 456 -3 464 -3 q 391 22 419 -3 q 363 82 363 46 q 452 201 363 126 q 542 301 542 275 q 453 416 542 328 q 365 515 365 504 q 392 583 365 558 q 463 608 419 608 q 525 593 497 608 q 565 558 533 589 q 738 301 738 397 z "},"¼":{"ha":881,"x_min":17,"x_max":815,"o":"m 17 958 q 93 1021 17 996 q 188 1031 138 1031 q 283 1004 258 1031 q 314 833 314 972 q 293 582 314 675 q 193 544 285 544 q 97 572 108 544 q 94 618 94 589 q 103 742 94 660 q 111 865 111 824 q 79 939 111 939 q 62 936 74 939 q 44 933 50 933 q 17 958 17 933 m 253 36 q 192 10 228 10 q 105 45 147 10 q 63 124 63 81 q 68 150 63 138 q 281 564 128 283 q 489 979 425 832 q 547 1010 501 1010 q 638 976 597 1010 q 679 893 679 942 q 676 869 679 882 q 253 36 525 581 m 760 29 q 589 -8 719 -8 q 417 63 417 -8 q 436 118 417 94 q 472 132 447 132 q 529 123 492 132 q 586 114 567 114 q 628 158 628 114 q 592 192 628 192 q 551 188 578 192 q 511 183 525 183 q 450 236 457 183 q 526 292 458 292 l 547 292 q 567 290 561 290 q 617 332 619 290 q 567 369 604 369 q 509 357 549 369 q 451 344 469 344 q 436 347 443 344 q 413 390 413 365 q 600 475 413 475 q 757 433 724 475 q 797 339 797 392 q 743 251 797 279 q 815 146 815 214 q 760 29 815 81 z "},"½":{"ha":896,"x_min":17,"x_max":826,"o":"m 17 958 q 93 1021 17 996 q 188 1031 138 1031 q 283 1004 258 1031 q 314 833 314 972 q 293 582 314 675 q 193 544 285 544 q 97 572 108 544 q 94 618 94 589 q 103 742 94 660 q 111 865 111 824 q 79 939 111 939 q 62 936 74 939 q 44 933 50 933 q 17 958 17 933 m 432 406 q 622 497 489 497 q 735 474 683 497 q 811 394 797 446 q 821 328 821 358 q 708 181 821 229 q 667 157 668 163 q 743 167 708 167 q 790 158 772 167 q 826 99 826 149 q 797 35 826 46 q 600 17 788 17 q 426 38 450 17 q 411 94 411 67 q 472 197 411 149 q 586 267 493 214 q 647 322 647 301 q 576 372 647 372 q 526 342 547 372 q 479 310 506 311 q 413 354 413 307 q 432 406 413 375 m 253 36 q 192 10 228 10 q 105 45 147 10 q 63 124 63 81 q 68 150 63 138 q 281 564 128 283 q 489 979 425 832 q 547 1010 501 1010 q 638 976 597 1010 q 679 893 679 942 q 676 869 679 882 q 253 36 525 581 z "},"¾":{"ha":874,"x_min":17,"x_max":806,"o":"m 17 958 q 93 1021 17 996 q 188 1031 138 1031 q 283 1004 258 1031 q 314 833 314 972 q 293 582 314 675 q 193 544 285 544 q 97 572 108 544 q 94 618 94 589 q 103 742 94 660 q 111 865 111 824 q 79 939 111 939 q 62 936 74 939 q 44 933 50 933 q 17 958 17 933 m 253 36 q 192 10 228 10 q 105 45 147 10 q 63 124 63 81 q 68 150 63 138 q 281 564 128 283 q 489 979 425 832 q 547 1010 501 1010 q 638 976 597 1010 q 679 893 679 942 q 676 869 679 882 q 253 36 525 581 m 668 510 q 457 407 553 521 q 371 207 371 304 q 374 181 371 192 q 469 136 417 136 q 513 144 485 136 q 554 151 542 151 q 568 138 568 151 q 562 110 568 129 q 556 81 556 92 q 563 50 556 64 q 646 29 572 29 q 708 44 690 29 q 715 83 715 60 q 707 143 714 93 q 749 152 721 153 q 786 157 778 151 q 806 208 806 171 q 757 276 806 276 q 740 274 751 276 q 722 272 728 272 q 711 279 713 272 q 718 388 718 343 q 668 510 718 511 m 540 290 q 553 315 542 300 q 572 329 564 329 q 579 300 579 329 q 567 281 579 281 q 540 290 539 281 z "},"¿":{"ha":764,"x_min":56,"x_max":711,"o":"m 706 211 q 581 57 671 110 q 385 8 497 8 q 194 50 283 8 q 71 189 86 101 q 56 286 56 233 q 93 442 56 372 q 207 553 133 518 q 253 586 232 565 l 314 649 q 385 700 338 700 q 465 646 442 700 q 474 628 469 635 q 485 561 485 593 q 447 479 485 513 q 367 426 436 468 q 289 331 289 379 q 311 268 289 303 q 417 208 349 208 q 599 308 518 208 q 711 239 711 308 q 706 211 711 228 m 524 882 q 381 763 517 761 q 267 858 288 764 q 263 893 263 876 q 302 986 263 953 q 403 1019 342 1019 q 497 972 463 1019 q 524 882 526 932 z "},"À":{"ha":418,"x_min":0,"x_max":0,"o":""},"Á":{"ha":418,"x_min":0,"x_max":0,"o":""},"Â":{"ha":418,"x_min":0,"x_max":0,"o":""},"Ã":{"ha":418,"x_min":0,"x_max":0,"o":""},"Æ":{"ha":418,"x_min":0,"x_max":0,"o":""},"È":{"ha":418,"x_min":0,"x_max":0,"o":""},"Ê":{"ha":418,"x_min":0,"x_max":0,"o":""},"Ë":{"ha":418,"x_min":0,"x_max":0,"o":""},"Ì":{"ha":418,"x_min":0,"x_max":0,"o":""},"Í":{"ha":418,"x_min":0,"x_max":0,"o":""},"Î":{"ha":418,"x_min":0,"x_max":0,"o":""},"Ï":{"ha":418,"x_min":0,"x_max":0,"o":""},"Ð":{"ha":418,"x_min":0,"x_max":0,"o":""},"Ò":{"ha":418,"x_min":0,"x_max":0,"o":""},"Ó":{"ha":418,"x_min":0,"x_max":0,"o":""},"Ô":{"ha":418,"x_min":0,"x_max":0,"o":""},"Õ":{"ha":418,"x_min":0,"x_max":0,"o":""},"Ø":{"ha":418,"x_min":0,"x_max":0,"o":""},"Ù":{"ha":418,"x_min":0,"x_max":0,"o":""},"Ú":{"ha":418,"x_min":0,"x_max":0,"o":""},"Û":{"ha":418,"x_min":0,"x_max":0,"o":""},"Ý":{"ha":418,"x_min":0,"x_max":0,"o":""},"Þ":{"ha":418,"x_min":0,"x_max":0,"o":""},"ß":{"ha":418,"x_min":0,"x_max":0,"o":""},"ã":{"ha":418,"x_min":0,"x_max":0,"o":""},"å":{"ha":418,"x_min":0,"x_max":0,"o":""},"æ":{"ha":1335,"x_min":14,"x_max":1253,"o":"m 1057 22 q 975 63 1007 67 l 975 63 q 974 36 972 49 l 974 32 q 1014 26 986 32 q 1057 22 1042 21 m 942 32 q 903 51 931 46 l 900 53 q 836 56 889 58 q 942 32 844 28 m 592 78 l 590 79 q 506 87 563 85 q 421 94 449 89 q 431 54 422 72 l 433 54 q 444 44 444 54 q 524 33 492 33 q 550 36 539 33 l 551 38 q 592 78 578 43 m 242 144 q 252 223 242 169 q 261 304 263 276 q 224 294 251 304 q 186 286 197 283 q 171 299 171 289 q 222 354 171 308 l 224 357 q 190 354 208 354 q 14 501 29 354 l 14 643 q 81 672 14 661 q 169 681 133 681 q 179 671 179 681 q 172 633 179 660 q 165 593 165 607 q 199 533 165 533 q 228 549 213 533 q 247 579 243 564 q 263 674 250 611 q 385 807 299 765 q 592 856 486 856 q 871 731 767 856 q 935 722 899 722 q 983 724 951 722 q 1032 726 1015 726 q 1101 717 1074 726 q 1232 585 1201 682 q 1250 494 1250 528 q 1243 454 1250 478 q 1236 406 1231 414 l 1238 404 q 1249 296 1253 360 l 1249 296 q 1194 108 1243 197 q 1046 0 1135 0 q 1003 6 1032 0 q 960 13 975 13 q 931 11 950 13 q 901 10 911 10 q 814 64 811 10 q 814 94 815 93 q 728 106 788 106 q 638 121 668 107 q 635 122 636 122 q 611 69 624 99 q 556 17 590 21 q 514 10 536 10 q 401 32 496 10 q 317 39 372 33 q 242 144 242 49 m 400 93 l 400 93 q 340 82 378 82 q 279 81 311 82 q 406 53 301 53 l 407 53 q 400 93 403 67 m 269 101 q 392 113 314 100 q 400 113 396 114 q 400 129 400 129 q 400 182 400 156 q 413 228 401 226 q 424 218 422 229 q 421 117 422 228 q 599 97 499 113 q 635 143 615 143 q 646 140 640 143 q 735 126 675 126 q 822 114 794 125 q 836 76 839 107 q 907 72 892 78 q 953 51 936 67 q 983 107 954 78 q 990 110 986 110 q 1001 99 1001 110 q 983 83 1001 99 q 1074 35 1017 85 q 1078 28 1078 32 q 1182 136 1139 49 q 1226 286 1215 206 l 1226 286 q 1171 276 1200 276 q 1101 290 1138 276 q 1051 360 1051 304 q 1135 425 1051 425 q 1188 408 1165 425 q 1192 400 1192 406 q 1181 389 1192 389 q 1175 392 1178 389 q 1090 397 1150 411 q 1072 358 1072 393 q 1076 332 1072 344 l 1078 331 q 1108 310 1082 317 q 1169 297 1140 297 q 1213 304 1192 297 q 1214 308 1214 306 l 1215 310 q 1228 317 1218 318 q 1218 396 1228 368 q 1224 461 1208 413 q 1228 494 1228 475 q 1213 579 1228 517 q 1145 669 1192 635 q 1039 706 1099 704 q 906 703 994 703 q 857 715 865 706 q 592 835 758 835 q 393 789 490 835 q 313 720 346 767 q 274 622 279 674 q 268 574 271 597 q 233 525 261 546 q 237 506 233 518 q 240 486 240 493 q 229 476 240 476 q 214 515 222 476 q 199 513 206 513 q 181 517 189 513 q 149 458 169 497 q 140 451 146 451 q 131 467 122 451 q 165 531 143 494 q 149 561 154 543 l 149 560 q 86 532 129 547 q 74 540 76 531 q 90 557 72 549 q 117 568 104 563 q 144 581 140 581 q 154 660 140 613 q 35 638 85 658 q 35 592 36 622 q 33 543 33 560 q 172 376 33 376 q 208 380 185 376 q 244 383 232 383 q 257 369 261 383 q 232 333 251 351 q 199 307 215 321 q 263 325 249 325 q 282 307 281 325 q 274 226 283 278 q 263 146 263 171 q 269 101 263 122 m 532 721 q 547 722 542 722 q 596 729 574 729 q 700 610 674 729 q 715 507 715 542 q 651 375 715 418 q 560 347 610 347 q 521 351 540 347 l 519 353 q 501 386 501 361 q 503 403 501 394 q 515 411 506 413 q 524 399 526 408 q 528 372 521 382 q 560 368 543 368 q 639 392 603 368 q 686 456 675 415 q 693 507 693 479 q 681 599 693 543 q 650 685 668 661 q 594 708 632 708 q 550 701 576 708 l 549 701 q 533 699 543 701 q 517 697 522 697 q 507 708 507 697 q 532 721 507 715 m 364 575 q 419 567 424 567 q 431 556 431 567 q 419 546 431 546 q 369 553 414 546 q 400 518 400 525 q 389 507 400 507 q 381 511 383 507 l 329 563 q 324 576 322 567 q 332 585 325 585 q 339 582 336 585 l 342 585 l 344 586 q 374 603 353 596 q 398 615 394 611 q 406 618 401 618 q 417 608 417 618 q 394 589 417 599 q 364 575 365 576 z "},"ç":{"ha":418,"x_min":0,"x_max":0,"o":""},"è":{"ha":418,"x_min":0,"x_max":0,"o":""},"é":{"ha":418,"x_min":0,"x_max":0,"o":""},"ê":{"ha":418,"x_min":0,"x_max":0,"o":""},"ë":{"ha":418,"x_min":0,"x_max":0,"o":""},"ì":{"ha":418,"x_min":0,"x_max":0,"o":""},"í":{"ha":418,"x_min":0,"x_max":0,"o":""},"î":{"ha":418,"x_min":0,"x_max":0,"o":""},"ï":{"ha":418,"x_min":0,"x_max":0,"o":""},"ð":{"ha":418,"x_min":0,"x_max":0,"o":""},"ñ":{"ha":418,"x_min":0,"x_max":0,"o":""},"ò":{"ha":418,"x_min":0,"x_max":0,"o":""},"ó":{"ha":418,"x_min":0,"x_max":0,"o":""},"ô":{"ha":418,"x_min":0,"x_max":0,"o":""},"õ":{"ha":418,"x_min":0,"x_max":0,"o":""},"ö":{"ha":418,"x_min":0,"x_max":0,"o":""},"÷":{"ha":813,"x_min":6,"x_max":740,"o":"m 58 660 q 339 678 150 678 q 678 660 563 678 q 740 556 740 650 q 692 439 740 479 q 306 422 543 422 q 49 433 139 422 q 6 539 6 456 q 58 660 6 633 m 289 406 q 356 418 321 418 q 500 319 446 418 q 515 256 515 292 q 440 129 515 175 q 361 107 404 107 q 248 154 294 107 q 201 268 201 201 q 289 406 201 371 m 297 974 q 364 986 329 986 q 508 888 454 986 q 524 824 524 860 q 449 697 524 743 q 369 675 413 675 q 256 722 303 675 q 210 836 210 769 q 297 974 210 939 z "},"ø":{"ha":1358,"x_min":13,"x_max":1292,"o":"m 425 739 q 422 760 422 743 q 453 836 422 808 q 385 835 415 835 q 344 776 369 828 q 324 728 324 733 l 324 722 q 425 739 375 735 m 875 147 q 888 104 888 146 q 874 79 888 86 q 553 0 722 0 q 314 40 324 0 q 313 56 313 46 q 314 85 313 79 q 164 121 208 100 q 50 225 101 150 q 28 249 40 231 l 28 249 q 13 364 13 307 q 304 715 13 631 q 303 725 303 719 q 333 800 303 736 q 385 857 361 857 q 514 862 428 857 q 643 867 600 867 q 842 839 764 867 q 875 783 875 826 q 860 722 875 749 q 994 657 924 699 q 1056 594 1022 640 q 1124 685 1078 625 q 1217 738 1164 738 q 1228 731 1224 738 q 1272 538 1251 674 q 1292 338 1292 413 q 1290 273 1292 315 q 1289 208 1289 231 q 1278 197 1289 199 q 1258 196 1268 196 q 1236 194 1244 194 q 1156 230 1217 194 q 1081 265 1094 265 q 1014 235 1054 265 q 954 188 994 218 q 875 147 922 164 m 650 83 q 650 75 650 83 q 660 50 650 67 l 669 32 q 867 99 743 46 l 867 101 q 864 128 867 106 q 858 138 858 131 q 861 143 858 142 q 775 125 819 132 q 783 94 775 108 l 792 81 q 782 69 792 69 q 754 124 758 69 q 697 114 735 121 l 694 114 q 647 101 672 107 q 650 83 650 100 m 549 85 q 539 21 544 54 l 558 22 q 647 28 589 24 q 629 82 629 51 q 632 99 629 93 q 549 85 592 90 m 396 28 l 396 38 q 401 76 396 60 q 335 82 368 78 q 333 67 335 76 l 333 56 q 335 44 333 49 q 396 28 358 33 m 422 76 q 418 25 421 58 q 522 21 456 21 q 519 28 519 24 q 525 82 519 60 q 422 76 474 78 m 143 218 q 174 225 154 218 q 196 232 193 232 q 207 221 207 232 q 179 201 207 208 q 142 196 158 196 q 96 201 119 196 q 125 171 107 190 q 260 114 160 133 q 411 99 338 99 q 536 107 461 99 q 539 108 538 108 l 542 108 q 690 135 624 119 q 781 147 703 138 q 974 229 890 161 q 1079 286 1043 286 q 1161 251 1100 286 q 1238 215 1222 215 q 1268 218 1243 215 q 1269 278 1268 238 q 1271 338 1271 318 q 1269 365 1271 350 q 1265 364 1268 364 l 1178 364 q 1167 375 1167 364 q 1178 386 1167 386 l 1265 386 q 1269 385 1268 385 q 1253 528 1265 451 q 1210 518 1253 526 q 1175 513 1186 513 q 1154 525 1154 513 q 1178 536 1154 532 q 1210 540 1194 538 q 1243 544 1232 544 q 1250 542 1247 544 q 1210 715 1233 642 q 1113 638 1168 710 q 1054 567 1058 567 q 1023 601 1054 567 q 983 639 992 635 q 750 721 840 721 q 687 724 729 721 q 624 728 644 728 q 585 725 622 728 q 357 708 521 722 q 33 364 33 635 q 47 256 33 310 q 75 226 63 244 l 76 226 q 110 222 88 226 q 143 218 132 218 m 786 832 q 757 751 774 806 q 746 743 754 743 q 736 756 736 743 q 747 794 736 768 q 765 836 756 813 q 708 843 739 842 q 703 836 707 840 q 669 787 685 825 q 651 747 654 749 q 746 743 725 744 q 839 728 800 739 q 854 781 854 764 q 832 819 854 808 q 786 832 824 824 m 529 743 l 529 744 l 529 769 q 551 843 529 821 l 488 839 q 482 832 488 835 q 449 793 457 818 q 443 740 446 781 q 529 743 472 740 m 550 743 q 622 749 632 749 l 646 749 q 639 758 639 751 q 653 803 639 774 q 678 844 667 832 q 643 846 661 846 q 585 844 617 846 q 579 836 585 839 q 551 794 557 825 q 550 743 551 769 m 419 350 q 379 204 419 242 q 372 201 376 201 q 361 213 361 201 q 365 219 361 215 q 399 350 399 261 q 383 486 399 438 q 308 600 364 544 q 304 608 304 604 q 315 619 304 619 q 322 617 318 619 q 419 350 419 538 m 779 554 q 858 542 858 554 q 847 532 858 533 q 779 533 860 533 q 644 531 733 533 q 508 528 554 528 q 499 538 499 528 q 508 549 499 549 q 644 551 554 549 q 779 554 733 554 m 908 394 q 919 383 919 394 q 910 374 919 375 q 700 356 882 368 q 624 347 683 354 q 550 343 585 343 q 538 353 538 343 q 548 363 538 361 q 757 381 558 365 q 833 389 774 382 q 908 394 885 394 m 1174 469 l 1249 469 q 1258 458 1258 469 q 1249 449 1258 449 l 1174 449 q 1163 458 1163 449 q 1174 469 1163 469 m 221 378 l 200 378 q 172 403 185 378 q 161 440 161 424 q 207 493 161 493 q 257 440 257 493 q 221 378 257 378 m 236 440 q 207 472 236 472 q 199 471 203 472 q 183 439 183 461 q 204 399 183 413 l 219 399 q 236 440 236 399 z "},"ù":{"ha":418,"x_min":0,"x_max":0,"o":""},"ú":{"ha":418,"x_min":0,"x_max":0,"o":""},"û":{"ha":418,"x_min":0,"x_max":0,"o":""},"ü":{"ha":418,"x_min":0,"x_max":0,"o":""},"þ":{"ha":418,"x_min":0,"x_max":0,"o":""},"ÿ":{"ha":418,"x_min":0,"x_max":0,"o":""},"ı":{"ha":418,"x_min":0,"x_max":0,"o":""},"Ł":{"ha":418,"x_min":0,"x_max":0,"o":""},"ł":{"ha":418,"x_min":0,"x_max":0,"o":""},"Œ":{"ha":418,"x_min":0,"x_max":0,"o":""},"œ":{"ha":418,"x_min":0,"x_max":0,"o":""},"Š":{"ha":418,"x_min":0,"x_max":0,"o":""},"š":{"ha":418,"x_min":0,"x_max":0,"o":""},"Ÿ":{"ha":418,"x_min":0,"x_max":0,"o":""},"Ž":{"ha":418,"x_min":0,"x_max":0,"o":""},"ž":{"ha":418,"x_min":0,"x_max":0,"o":""},"ƒ":{"ha":418,"x_min":0,"x_max":0,"o":""},"ˆ":{"ha":418,"x_min":0,"x_max":0,"o":""},"ˇ":{"ha":418,"x_min":0,"x_max":0,"o":""},"¯":{"ha":418,"x_min":0,"x_max":0,"o":""},"ˉ":{"ha":418,"x_min":0,"x_max":0,"o":""},"˘":{"ha":418,"x_min":0,"x_max":0,"o":""},"˙":{"ha":418,"x_min":0,"x_max":0,"o":""},"˚":{"ha":418,"x_min":0,"x_max":0,"o":""},"˛":{"ha":418,"x_min":0,"x_max":0,"o":""},"˜":{"ha":418,"x_min":0,"x_max":0,"o":""},"˝":{"ha":418,"x_min":0,"x_max":0,"o":""},"Δ":{"ha":418,"x_min":0,"x_max":0,"o":""},"∆":{"ha":418,"x_min":0,"x_max":0,"o":""},"Ω":{"ha":1039,"x_min":13,"x_max":976,"o":"m 525 732 q 569 553 558 660 q 696 567 632 567 q 956 428 913 567 q 972 336 964 400 q 976 269 976 303 q 908 64 976 150 q 801 8 864 8 q 751 29 760 8 q 689 7 721 7 q 646 26 664 7 q 638 58 638 36 q 636 82 638 79 q 431 68 565 68 q 406 46 428 68 q 374 19 383 24 q 290 0 325 0 q 268 9 281 0 q 250 19 256 18 q 176 6 203 0 l 175 6 q 135 25 146 18 q 108 61 118 36 q 100 72 100 64 l 100 76 q 72 200 72 129 q 76 279 72 222 q 79 360 81 329 q 25 544 25 440 q 43 664 25 603 l 42 664 q 15 686 31 668 q 13 707 13 696 q 44 783 13 749 q 117 818 75 818 q 137 815 125 818 q 160 791 149 813 q 174 769 171 769 q 197 779 179 769 l 221 792 q 319 813 268 813 q 372 807 346 813 q 403 828 376 806 q 437 853 429 851 q 451 856 444 856 q 515 827 482 856 q 549 768 549 799 q 525 732 549 751 m 772 100 q 768 49 772 82 q 771 38 768 44 q 800 31 783 31 q 893 76 857 31 q 954 271 954 154 q 944 379 954 318 q 889 490 932 457 q 696 546 817 546 q 563 531 631 546 q 550 539 551 528 q 535 635 540 610 q 504 726 524 686 q 503 733 503 731 q 517 752 503 740 q 528 769 531 764 q 442 833 493 843 q 407 804 438 831 q 368 786 383 783 q 319 792 340 792 q 203 758 263 792 q 174 749 186 749 q 145 772 157 749 q 128 796 133 794 q 117 797 124 797 q 58 769 83 797 q 33 708 33 742 q 50 681 33 690 q 63 658 67 672 q 47 544 47 603 q 99 369 47 446 q 100 293 104 363 q 94 214 97 267 q 118 76 90 131 q 121 78 119 78 l 126 74 q 182 26 138 43 q 236 36 201 22 q 229 118 224 83 q 240 126 231 128 q 250 115 251 125 q 257 39 244 83 q 274 30 263 38 q 290 22 286 22 q 379 53 351 22 q 431 90 413 90 q 633 104 561 90 q 658 69 658 108 q 661 40 658 43 q 688 26 672 26 q 747 54 701 26 q 753 106 749 75 q 765 113 754 115 q 772 100 775 110 m 892 397 l 893 397 q 879 414 896 413 q 854 410 867 417 q 847 393 847 407 q 854 364 847 378 l 856 361 q 900 328 864 328 q 911 317 911 328 q 900 306 911 306 q 835 356 849 306 q 826 393 826 374 q 874 436 826 436 q 914 403 914 436 q 900 376 914 376 l 892 376 q 881 386 881 376 q 892 397 881 397 m 343 629 q 426 571 415 629 l 426 568 q 428 542 426 560 q 431 515 431 524 q 419 492 428 501 l 419 490 q 374 451 407 476 q 299 438 340 438 q 219 446 267 438 q 188 476 199 447 q 178 524 178 499 q 203 592 178 567 q 222 606 215 604 q 239 610 236 608 l 240 611 q 343 629 306 629 m 247 592 q 217 576 240 592 q 199 524 199 558 q 221 467 199 474 l 222 467 q 301 458 269 458 q 385 485 361 458 q 404 506 390 490 q 408 535 410 514 q 406 567 408 542 q 344 610 396 610 q 247 592 308 610 m 282 499 q 272 488 282 488 l 268 488 q 229 504 238 479 q 235 560 219 533 q 256 568 239 568 q 276 558 272 568 q 288 513 290 535 q 282 499 286 504 m 251 547 q 247 526 247 542 q 253 508 246 510 l 263 508 q 267 515 265 510 q 260 547 268 529 l 251 547 m 373 517 q 372 512 373 517 q 360 507 371 507 l 356 507 q 344 506 351 506 q 333 507 340 506 q 318 524 322 511 q 324 578 307 554 q 344 588 328 588 q 365 578 361 588 q 376 532 379 554 q 373 517 375 526 m 340 565 q 335 544 336 558 q 342 526 333 528 q 350 528 346 526 q 356 535 354 529 q 347 565 357 549 l 340 565 m 278 425 q 394 444 368 414 q 401 449 397 449 q 413 438 413 449 q 351 406 413 413 q 275 404 308 400 q 267 415 265 406 q 278 425 267 426 m 188 617 q 169 629 174 617 l 168 631 q 165 644 165 636 q 197 682 165 682 q 226 649 226 682 q 207 618 226 618 l 193 618 q 188 617 190 617 m 188 639 l 203 639 q 206 651 208 643 q 197 660 203 660 q 186 650 186 660 q 188 639 186 644 m 383 650 q 365 661 369 650 l 364 663 q 361 676 361 668 q 393 714 361 714 q 422 681 422 714 q 403 651 422 651 l 393 651 q 389 650 392 651 l 383 650 m 383 671 l 389 671 q 393 672 392 672 l 399 672 q 401 685 403 676 q 393 693 399 693 q 382 682 382 693 q 383 671 382 678 z "},"Ω":{"ha":1039,"x_min":13,"x_max":976,"o":"m 525 732 q 569 553 558 660 q 696 567 632 567 q 956 428 913 567 q 972 336 964 400 q 976 269 976 303 q 908 64 976 150 q 801 8 864 8 q 751 29 760 8 q 689 7 721 7 q 646 26 664 7 q 638 58 638 36 q 636 82 638 79 q 431 68 565 68 q 406 46 428 68 q 374 19 383 24 q 290 0 325 0 q 268 9 281 0 q 250 19 256 18 q 176 6 203 0 l 175 6 q 135 25 146 18 q 108 61 118 36 q 100 72 100 64 l 100 76 q 72 200 72 129 q 76 279 72 222 q 79 360 81 329 q 25 544 25 440 q 43 664 25 603 l 42 664 q 15 686 31 668 q 13 707 13 696 q 44 783 13 749 q 117 818 75 818 q 137 815 125 818 q 160 791 149 813 q 174 769 171 769 q 197 779 179 769 l 221 792 q 319 813 268 813 q 372 807 346 813 q 403 828 376 806 q 437 853 429 851 q 451 856 444 856 q 515 827 482 856 q 549 768 549 799 q 525 732 549 751 m 772 100 q 768 49 772 82 q 771 38 768 44 q 800 31 783 31 q 893 76 857 31 q 954 271 954 154 q 944 379 954 318 q 889 490 932 457 q 696 546 817 546 q 563 531 631 546 q 550 539 551 528 q 535 635 540 610 q 504 726 524 686 q 503 733 503 731 q 517 752 503 740 q 528 769 531 764 q 442 833 493 843 q 407 804 438 831 q 368 786 383 783 q 319 792 340 792 q 203 758 263 792 q 174 749 186 749 q 145 772 157 749 q 128 796 133 794 q 117 797 124 797 q 58 769 83 797 q 33 708 33 742 q 50 681 33 690 q 63 658 67 672 q 47 544 47 603 q 99 369 47 446 q 100 293 104 363 q 94 214 97 267 q 118 76 90 131 q 121 78 119 78 l 126 74 q 182 26 138 43 q 236 36 201 22 q 229 118 224 83 q 240 126 231 128 q 250 115 251 125 q 257 39 244 83 q 274 30 263 38 q 290 22 286 22 q 379 53 351 22 q 431 90 413 90 q 633 104 561 90 q 658 69 658 108 q 661 40 658 43 q 688 26 672 26 q 747 54 701 26 q 753 106 749 75 q 765 113 754 115 q 772 100 775 110 m 892 397 l 893 397 q 879 414 896 413 q 854 410 867 417 q 847 393 847 407 q 854 364 847 378 l 856 361 q 900 328 864 328 q 911 317 911 328 q 900 306 911 306 q 835 356 849 306 q 826 393 826 374 q 874 436 826 436 q 914 403 914 436 q 900 376 914 376 l 892 376 q 881 386 881 376 q 892 397 881 397 m 343 629 q 426 571 415 629 l 426 568 q 428 542 426 560 q 431 515 431 524 q 419 492 428 501 l 419 490 q 374 451 407 476 q 299 438 340 438 q 219 446 267 438 q 188 476 199 447 q 178 524 178 499 q 203 592 178 567 q 222 606 215 604 q 239 610 236 608 l 240 611 q 343 629 306 629 m 247 592 q 217 576 240 592 q 199 524 199 558 q 221 467 199 474 l 222 467 q 301 458 269 458 q 385 485 361 458 q 404 506 390 490 q 408 535 410 514 q 406 567 408 542 q 344 610 396 610 q 247 592 308 610 m 282 499 q 272 488 282 488 l 268 488 q 229 504 238 479 q 235 560 219 533 q 256 568 239 568 q 276 558 272 568 q 288 513 290 535 q 282 499 286 504 m 251 547 q 247 526 247 542 q 253 508 246 510 l 263 508 q 267 515 265 510 q 260 547 268 529 l 251 547 m 373 517 q 372 512 373 517 q 360 507 371 507 l 356 507 q 344 506 351 506 q 333 507 340 506 q 318 524 322 511 q 324 578 307 554 q 344 588 328 588 q 365 578 361 588 q 376 532 379 554 q 373 517 375 526 m 340 565 q 335 544 336 558 q 342 526 333 528 q 350 528 346 526 q 356 535 354 529 q 347 565 357 549 l 340 565 m 278 425 q 394 444 368 414 q 401 449 397 449 q 413 438 413 449 q 351 406 413 413 q 275 404 308 400 q 267 415 265 406 q 278 425 267 426 m 188 617 q 169 629 174 617 l 168 631 q 165 644 165 636 q 197 682 165 682 q 226 649 226 682 q 207 618 226 618 l 193 618 q 188 617 190 617 m 188 639 l 203 639 q 206 651 208 643 q 197 660 203 660 q 186 650 186 660 q 188 639 186 644 m 383 650 q 365 661 369 650 l 364 663 q 361 676 361 668 q 393 714 361 714 q 422 681 422 714 q 403 651 422 651 l 393 651 q 389 650 392 651 l 383 650 m 383 671 l 389 671 q 393 672 392 672 l 399 672 q 401 685 403 676 q 393 693 399 693 q 382 682 382 693 q 383 671 382 678 z "},"µ":{"ha":418,"x_min":0,"x_max":0,"o":""},"μ":{"ha":418,"x_min":0,"x_max":0,"o":""},"π":{"ha":418,"x_min":0,"x_max":0,"o":""},"–":{"ha":418,"x_min":0,"x_max":0,"o":""},"—":{"ha":418,"x_min":0,"x_max":0,"o":""},"‘":{"ha":418,"x_min":0,"x_max":0,"o":""},"’":{"ha":418,"x_min":0,"x_max":0,"o":""},"‚":{"ha":418,"x_min":0,"x_max":0,"o":""},"“":{"ha":418,"x_min":0,"x_max":0,"o":""},"”":{"ha":418,"x_min":0,"x_max":0,"o":""},"„":{"ha":418,"x_min":0,"x_max":0,"o":""},"†":{"ha":418,"x_min":0,"x_max":0,"o":""},"‡":{"ha":418,"x_min":0,"x_max":0,"o":""},"•":{"ha":594,"x_min":99,"x_max":490,"o":"m 208 751 q 290 768 250 768 q 472 646 401 768 q 490 565 490 607 q 396 408 490 467 q 297 379 349 379 q 126 476 185 379 q 99 581 99 522 q 208 751 99 707 z "},"…":{"ha":663,"x_min":3,"x_max":572,"o":"m 254 161 q 288 168 272 168 q 290 168 292 168 q 364 117 335 167 q 371 83 371 101 q 332 18 371 43 q 292 6 313 6 q 232 30 256 6 q 208 90 208 54 q 254 161 208 143 m 456 161 q 489 168 474 168 q 492 168 493 168 q 565 117 536 167 q 572 83 572 101 q 533 18 572 43 q 493 6 514 6 q 433 30 457 6 q 410 90 410 54 q 456 161 410 143 m 49 164 q 82 171 67 171 q 85 171 86 171 q 158 119 129 169 q 165 86 165 104 q 126 21 165 46 q 86 8 107 8 q 26 33 50 8 q 3 93 3 57 q 49 164 3 146 z "},"‰":{"ha":418,"x_min":0,"x_max":0,"o":""},"‹":{"ha":418,"x_min":0,"x_max":0,"o":""},"›":{"ha":418,"x_min":0,"x_max":0,"o":""},"⁄":{"ha":418,"x_min":0,"x_max":0,"o":""},"™":{"ha":853,"x_min":-3,"x_max":744,"o":"m 21 996 q 174 1008 92 1008 q 347 996 256 1008 q 372 928 372 985 q 351 865 372 875 q 318 849 339 849 q 287 855 307 849 q 258 861 267 861 q 240 835 240 861 q 251 701 240 790 q 263 568 263 613 q 254 524 263 531 q 178 503 228 503 q 117 531 129 503 q 110 571 110 538 q 123 703 110 615 q 136 833 136 790 q 133 849 136 847 q 117 860 129 860 q 72 850 110 858 q -3 925 -3 833 q 21 996 -3 982 m 396 533 q 376 769 376 586 q 392 964 376 914 q 456 1007 394 1007 q 522 960 521 1007 q 536 928 535 928 q 563 910 546 911 q 603 963 586 911 q 665 1001 606 1001 q 728 960 719 1001 q 744 736 744 882 q 728 540 744 606 q 668 507 719 507 q 613 536 626 507 q 608 567 608 544 q 613 632 608 589 q 618 697 618 675 q 606 732 618 731 q 593 705 604 732 q 560 678 582 678 q 531 705 540 678 q 518 732 522 732 q 501 690 501 728 q 508 621 501 667 q 515 551 515 575 q 514 536 515 540 q 453 507 497 507 q 396 533 408 507 z "},"∂":{"ha":418,"x_min":0,"x_max":0,"o":""},"∏":{"ha":418,"x_min":0,"x_max":0,"o":""},"∑":{"ha":418,"x_min":0,"x_max":0,"o":""},"­":{"ha":418,"x_min":0,"x_max":0,"o":""},"−":{"ha":418,"x_min":0,"x_max":0,"o":""},"·":{"ha":418,"x_min":0,"x_max":0,"o":""},"∙":{"ha":418,"x_min":0,"x_max":0,"o":""},"√":{"ha":418,"x_min":0,"x_max":0,"o":""},"∞":{"ha":869,"x_min":-4,"x_max":794,"o":"m 531 142 l 524 124 q 507 100 519 113 l 500 93 q 483 54 483 76 q 493 33 483 38 l 494 33 q 588 14 538 14 q 704 33 639 14 q 771 163 760 50 q 699 364 771 239 q 651 407 668 403 q 629 436 629 413 q 643 451 629 450 q 675 456 674 454 q 686 483 689 461 q 649 504 683 497 q 635 517 635 507 q 640 526 635 522 q 668 546 646 531 q 686 567 686 558 q 676 599 682 594 q 642 610 671 604 q 631 619 631 611 q 639 632 629 628 q 683 676 683 651 q 681 686 683 682 q 658 714 674 710 q 622 717 651 717 q 608 728 608 717 q 617 739 608 735 q 669 790 669 765 q 650 839 669 810 q 628 850 643 850 q 592 842 619 850 q 574 846 574 836 q 581 872 574 854 q 482 928 576 943 q 435 883 453 917 q 425 874 429 874 l 403 907 q 347 939 381 939 q 325 936 336 939 q 275 888 292 928 q 267 878 272 878 q 244 898 264 878 q 211 919 225 918 q 157 908 183 922 q 129 869 131 894 q 114 833 125 833 l 79 833 q 31 768 31 818 q 43 731 31 747 q 68 693 68 703 q 56 685 68 685 q 25 640 36 685 q 46 601 22 624 q 81 550 81 568 q 69 526 81 540 q 57 506 58 511 q 65 479 65 481 q 86 464 69 472 l 97 457 q 147 392 147 429 q 158 278 158 308 q 124 154 158 204 q 97 90 97 115 q 107 63 97 72 q 183 26 143 26 q 228 50 214 26 q 246 85 232 57 q 260 119 246 99 q 281 151 278 146 q 281 225 296 183 l 281 225 l 281 226 l 301 235 q 311 199 310 215 q 299 138 314 168 q 271 81 285 108 l 271 76 q 336 24 278 24 q 432 39 340 24 q 449 46 440 42 q 453 76 450 53 q 472 101 456 94 q 522 189 504 126 q 560 286 543 265 q 571 292 564 292 q 582 283 582 292 q 581 275 582 281 q 531 142 572 251 m 101 858 q 161 938 101 925 q 206 944 194 944 q 261 915 236 944 q 346 963 286 963 q 428 915 404 963 q 474 950 443 939 l 476 951 q 511 954 494 954 q 604 872 599 954 q 668 856 643 881 q 693 790 693 831 q 663 738 693 760 l 665 738 q 703 694 690 729 q 707 675 707 683 q 676 626 707 647 q 710 569 704 618 q 675 524 713 543 q 711 475 711 513 q 660 429 711 433 q 718 376 686 419 q 794 161 794 244 q 732 24 785 61 q 583 -11 686 -11 q 483 11 529 -11 q 465 28 471 18 q 439 17 463 25 q 428 13 433 13 q 424 14 425 13 q 331 0 354 0 q 253 46 268 0 q 186 1 226 1 q 90 47 135 1 q 74 89 74 65 q 103 167 74 115 q 133 274 133 219 q 129 332 133 290 l 124 392 q 88 435 124 414 q 40 476 47 458 q 33 500 39 483 l 33 504 q 44 533 33 517 q 57 550 50 539 l 56 553 q 22 589 54 557 q 1 644 -4 615 l 1 646 q 36 703 10 689 q 7 753 24 717 q 22 817 1 786 q 74 857 42 849 l 76 858 l 101 858 m 463 607 q 418 639 426 607 q 422 680 411 661 q 457 699 433 699 q 500 658 500 699 q 463 607 500 607 m 476 658 q 450 674 476 683 q 440 656 440 671 q 460 631 440 631 q 476 658 476 631 m 293 590 q 250 624 260 590 q 254 665 243 647 q 289 683 265 683 q 332 643 332 683 q 293 590 332 590 m 308 643 q 282 658 308 667 q 272 640 272 656 q 292 615 272 615 q 308 643 308 615 m 374 603 q 399 593 388 603 q 410 569 410 583 q 403 546 410 560 l 401 543 q 371 529 386 529 q 332 561 332 529 q 344 590 332 578 q 374 603 357 603 m 356 564 q 371 553 351 553 q 381 557 376 553 l 382 558 q 385 569 385 565 q 378 578 385 576 q 356 564 363 583 m 542 740 l 543 739 q 572 671 567 715 q 561 657 574 657 q 549 668 550 657 q 522 726 544 704 q 522 754 506 743 q 536 782 536 764 q 488 819 536 829 q 471 815 483 819 q 461 810 465 813 q 456 772 457 800 q 444 754 454 754 l 256 746 q 244 757 244 746 q 247 774 244 763 q 249 790 249 785 q 207 821 249 821 q 165 772 165 821 q 181 728 165 749 q 185 714 185 722 q 171 686 185 708 q 154 649 157 664 q 153 586 153 640 q 142 575 153 575 q 129 586 129 575 q 132 654 129 638 q 161 714 138 690 q 142 771 142 740 q 160 823 142 801 q 208 844 178 844 q 271 769 285 844 q 431 776 282 769 q 440 822 431 800 l 443 825 q 468 839 454 836 q 560 782 560 858 q 542 740 560 756 m 336 469 q 410 467 357 464 l 411 468 q 433 486 421 475 q 440 489 438 489 q 453 476 453 489 q 447 468 453 471 q 413 443 438 456 q 376 440 393 440 q 290 468 321 440 q 288 476 288 472 q 299 489 288 489 q 316 480 301 489 q 336 469 331 471 m 279 418 q 368 406 317 406 q 461 411 392 406 q 483 432 472 413 q 493 438 488 438 q 506 426 506 438 q 490 402 506 415 q 463 388 475 389 q 368 382 392 382 q 271 396 313 382 q 263 407 263 399 q 279 418 263 424 m 168 538 l 226 538 q 239 525 239 538 q 226 513 239 513 l 168 513 q 156 525 156 513 q 168 538 156 538 m 183 501 q 222 507 190 501 q 236 496 236 510 q 226 483 236 486 q 179 479 189 476 q 169 490 169 481 q 183 501 169 504 m 186 461 q 190 462 186 461 q 215 469 194 463 q 238 475 235 475 q 250 463 250 475 q 243 453 250 457 q 192 439 226 444 q 178 450 178 436 q 186 461 178 460 m 510 561 q 576 567 551 561 q 592 554 592 569 q 582 543 592 544 q 510 538 554 538 q 499 549 499 538 q 510 561 499 561 m 526 532 l 564 532 q 575 519 575 532 q 564 508 575 508 l 526 508 q 514 519 514 508 q 526 532 514 532 m 532 494 q 554 488 538 494 q 575 483 571 482 q 589 471 589 486 q 579 460 589 461 q 553 465 568 458 q 532 471 538 471 q 519 482 519 471 q 532 494 519 494 z "},"∫":{"ha":1403,"x_min":10,"x_max":1354,"o":"m 1114 54 q 1061 31 1079 38 q 992 13 1024 17 q 775 1 896 1 q 520 10 690 1 q 265 18 350 18 q 160 19 171 18 q 68 64 101 26 q 10 217 10 128 q 93 457 10 328 q 271 593 154 550 q 489 635 343 619 q 451 726 494 694 q 351 756 414 756 q 228 721 296 756 l 224 721 q 215 719 221 721 l 206 719 q 186 736 188 719 q 282 842 181 800 q 349 854 313 854 q 525 781 428 854 q 671 815 590 815 q 785 786 731 815 q 847 696 847 751 q 793 678 847 678 l 792 678 q 719 701 772 682 q 647 715 675 718 q 583 686 614 708 l 582 685 q 554 629 578 682 q 614 606 578 615 q 676 588 665 592 q 774 558 708 578 q 856 499 829 540 l 914 406 q 946 296 935 365 q 963 211 951 264 q 978 192 965 200 q 1001 186 990 183 q 1071 285 1071 207 q 1010 404 1071 333 q 963 492 969 451 q 983 525 958 519 l 1029 525 q 1160 438 1094 503 q 1213 482 1176 456 l 1271 514 q 1332 531 1301 531 q 1354 510 1354 531 l 1354 507 q 1317 424 1350 468 q 1263 346 1269 361 q 1219 210 1250 319 q 1157 86 1194 124 q 1114 54 1146 76 m 1244 356 q 1293 431 1254 376 q 1332 510 1326 475 q 1274 492 1307 510 l 1221 463 q 1193 438 1215 460 q 1160 417 1171 417 q 1146 422 1151 417 q 1025 504 1085 483 q 1000 506 979 506 q 983 494 982 506 q 1029 413 989 461 q 1083 334 1074 358 q 1092 285 1092 310 q 1065 206 1092 243 q 996 164 1036 164 q 942 206 951 164 q 919 321 931 263 q 876 429 904 386 q 832 494 842 483 q 765 539 807 524 q 668 568 744 544 q 592 590 643 575 q 529 626 529 610 q 547 670 538 647 q 571 703 557 693 q 644 736 608 728 q 721 724 678 739 q 794 699 786 700 q 821 700 814 699 l 825 701 q 668 794 797 794 q 529 758 593 794 q 518 760 524 756 q 349 833 422 833 q 290 822 317 833 q 207 740 204 786 q 221 742 211 740 q 353 776 292 776 q 460 746 417 776 q 510 651 510 711 q 499 615 510 615 q 281 574 353 599 q 111 446 168 535 q 32 210 32 322 q 36 160 32 183 q 150 153 97 138 q 163 146 160 156 q 156 133 165 136 q 44 133 93 114 q 93 70 56 97 q 169 39 131 43 l 265 39 q 520 31 350 39 q 775 24 690 24 q 990 35 889 24 q 1099 72 1033 39 q 1197 215 1160 103 q 1244 356 1240 344 m 578 176 q 656 290 650 171 l 554 290 q 543 301 543 290 q 554 313 543 313 l 667 313 q 678 301 678 313 q 657 207 678 249 q 585 156 632 156 q 558 168 558 156 l 558 171 q 568 182 558 182 q 578 176 575 182 m 224 294 l 222 293 q 204 289 213 289 q 154 338 164 289 l 154 340 q 200 397 154 386 l 203 399 q 246 344 246 399 q 224 294 246 311 m 213 313 q 228 343 228 325 q 219 372 228 356 q 204 376 217 376 q 175 342 176 369 q 204 311 182 311 q 213 313 208 311 m 314 256 q 340 256 322 253 q 368 260 364 260 q 378 249 378 260 q 365 238 378 239 q 339 235 351 236 q 310 235 319 232 q 301 247 299 236 q 314 256 303 257 m 319 217 q 385 194 331 214 q 392 185 392 193 q 378 175 392 171 q 317 196 358 183 q 308 208 306 197 q 319 217 310 218 z "},"≈":{"ha":835,"x_min":21,"x_max":744,"o":"m 257 399 q 213 369 235 394 q 186 338 204 358 q 97 292 144 292 q 40 321 61 292 q 21 383 21 346 q 101 556 21 465 q 172 606 125 582 q 253 631 219 631 q 374 601 338 631 q 414 546 381 596 q 478 515 433 517 q 532 550 507 515 q 574 606 568 601 q 638 629 604 629 q 708 598 681 629 q 735 524 735 567 q 707 438 735 481 q 622 338 663 368 q 475 289 563 292 q 369 318 413 286 q 315 374 361 324 q 257 399 288 403 m 267 779 q 222 750 243 774 q 196 718 214 739 q 107 671 154 671 q 51 699 71 671 q 31 764 31 726 q 111 936 31 844 q 182 987 135 963 q 263 1011 229 1011 q 383 982 347 1011 q 424 926 390 976 q 488 896 443 897 q 542 931 517 896 q 582 986 560 957 q 647 1010 613 1010 q 717 978 689 1010 q 744 904 744 947 q 717 818 744 861 q 632 718 672 750 q 485 669 574 672 q 379 697 421 667 q 324 754 369 704 q 267 779 297 783 z "},"⋲":{"ha":835,"x_min":21,"x_max":744,"o":"m 257 399 q 213 369 235 394 q 186 338 204 358 q 97 292 144 292 q 40 321 61 292 q 21 383 21 346 q 101 556 21 465 q 172 606 125 582 q 253 631 219 631 q 374 601 338 631 q 414 546 381 596 q 478 515 433 517 q 532 550 507 515 q 574 606 568 601 q 638 629 604 629 q 708 598 681 629 q 735 524 735 567 q 707 438 735 481 q 622 338 663 368 q 475 289 563 292 q 369 318 413 286 q 315 374 361 324 q 257 399 288 403 m 267 779 q 222 750 243 774 q 196 718 214 739 q 107 671 154 671 q 51 699 71 671 q 31 764 31 726 q 111 936 31 844 q 182 987 135 963 q 263 1011 229 1011 q 383 982 347 1011 q 424 926 390 976 q 488 896 443 897 q 542 931 517 896 q 582 986 560 957 q 647 1010 613 1010 q 717 978 689 1010 q 744 904 744 947 q 717 818 744 861 q 632 718 672 750 q 485 669 574 672 q 379 697 421 667 q 324 754 369 704 q 267 779 297 783 z "},"≠":{"ha":792,"x_min":40,"x_max":707,"o":"m 88 456 q 233 469 140 465 q 268 543 250 506 q 79 551 147 543 q 40 643 40 571 q 88 747 40 725 q 374 763 179 765 q 429 876 401 819 q 522 947 472 947 q 598 922 563 947 q 631 858 633 897 q 594 753 621 822 q 651 747 633 750 q 707 657 707 739 q 664 556 707 592 q 507 546 606 550 q 472 469 490 508 q 572 468 522 469 q 665 447 635 465 q 707 367 707 424 q 664 264 707 300 q 369 251 554 253 q 269 72 301 118 q 199 53 236 53 q 131 76 160 53 q 103 136 103 99 q 140 254 103 163 q 79 260 106 257 q 40 351 40 279 q 88 456 40 433 z "},"≤":{"ha":778,"x_min":42,"x_max":706,"o":"m 424 988 q 211 839 318 931 q 69 647 72 721 q 254 432 75 560 q 539 292 424 311 q 639 314 593 292 q 696 392 696 343 q 668 446 696 419 q 500 554 629 482 q 397 647 397 611 q 533 772 397 679 q 690 897 679 872 q 635 983 690 954 q 528 1006 592 1006 q 424 988 474 1006 m 88 219 q 343 235 171 235 q 651 219 543 235 q 706 118 706 211 q 664 28 706 39 q 313 14 529 14 q 79 24 161 14 q 42 122 42 54 q 88 219 42 199 z "},"≥":{"ha":765,"x_min":40,"x_max":706,"o":"m 326 988 q 539 839 432 931 q 681 647 678 721 q 496 432 675 560 q 211 292 326 311 q 111 314 157 292 q 54 392 54 343 q 82 446 54 419 q 250 554 121 482 q 353 647 353 611 q 217 772 353 679 q 60 897 71 872 q 115 983 60 954 q 222 1006 158 1006 q 326 988 276 1006 m 88 219 q 343 235 171 235 q 651 219 543 235 q 706 115 706 211 q 664 28 706 33 q 313 14 538 14 q 79 24 161 14 q 40 121 40 53 q 88 219 40 197 z "},"◊":{"ha":418,"x_min":0,"x_max":0,"o":""},"":{"ha":418,"x_min":0,"x_max":0,"o":""},"":{"ha":418,"x_min":0,"x_max":0,"o":""}," ":{"ha":418,"x_min":0,"x_max":0,"o":""},"":{"ha":418,"x_min":0,"x_max":0,"o":""}}}
